<?xml version="1.0" encoding="UTF-8"?>
<svg version="1.1" xmlns="http://www.w3.org/2000/svg" width="600" height="65">
<path d="M0 0 C198 0 396 0 600 0 C600 21.45 600 42.9 600 65 C402 65 204 65 0 65 C0 43.55 0 22.1 0 0 Z " fill="#FCFCFE" transform="translate(0,0)"/>
<path d="M0 0 C25.99989894 -0.06778411 51.99972607 -0.12302091 77.99969101 -0.15543652 C90.07258015 -0.17088931 102.14541039 -0.19194851 114.21826172 -0.22631836 C124.74394625 -0.25626928 135.26958811 -0.27558653 145.79531407 -0.28226548 C151.36588274 -0.28616809 156.93632936 -0.29530671 162.50685883 -0.31719017 C167.75662363 -0.33764524 173.00621681 -0.34381561 178.25601768 -0.33932304 C180.17638013 -0.34014422 182.09674867 -0.34605583 184.01707649 -0.35761642 C208.85223826 -0.49971607 208.85223826 -0.49971607 216.5625 5.3125 C222.03677861 11.34824309 222.54775835 16.68959318 222.33984375 24.58203125 C221.790744 30.10458624 220.4866038 33.85998036 216.234375 37.51953125 C207.06038118 43.78601916 197.67126861 43.19055837 187 43 C187 50.26 187 57.52 187 65 C125.29 65 63.58 65 0 65 C0 43.55 0 22.1 0 0 Z " fill="#0505CD" transform="translate(0,0)"/>
<path d="M0 0 C40.26 0 80.52 0 122 0 C122 21.45 122 42.9 122 65 C77.12 65 32.24 65 -14 65 C-14 57.74 -14 50.48 -14 43 C-10.596875 42.8453125 -10.596875 42.8453125 -7.125 42.6875 C0.74836485 42.22380834 9.78897079 41.29764256 16 36 C20.45261302 30.44525505 20.6602974 24.25874909 20.453125 17.35546875 C19.65796082 11.46714089 17.24974604 7.92835375 12.8125 4.125 C8.66264105 2.46505642 4.39824802 1.72592443 0 1 C0 0.67 0 0.34 0 0 Z " fill="#F9F9FD" transform="translate(201,0)"/>
<path d="M0 0 C39.93 0 79.86 0 121 0 C121 3.63 121 7.26 121 11 C115.72 11 110.44 11 105 11 C105 25.19 105 39.38 105 54 C110.28 54 115.56 54 121 54 C121 57.63 121 61.26 121 65 C81.07 65 41.14 65 0 65 C0 43.55 0 22.1 0 0 Z " fill="#FCFCFE" transform="translate(323,0)"/>
<path d="M0 0 C25.08 0 50.16 0 76 0 C76 21.45 76 42.9 76 65 C50.92 65 25.84 65 0 65 C0 43.55 0 22.1 0 0 Z " fill="#FDFDFE" transform="translate(0,0)"/>
<path d="M0 0 C37.18918919 0 37.18918919 0 44 6 C48.32556655 11.35004284 48.61697693 16.04126991 48.3828125 22.83984375 C47.434355 30.66945723 43.93390781 34.25287375 38 39 C38.39380859 39.7520874 38.78761719 40.5041748 39.19335938 41.27905273 C40.64860384 44.06059323 42.10202479 46.84307635 43.55419922 49.6262207 C44.18399861 50.83233367 44.81453098 52.03806419 45.44580078 53.2434082 C46.35119546 54.97247042 47.25376773 56.70300962 48.15625 58.43359375 C48.70087891 59.47572021 49.24550781 60.51784668 49.80664062 61.59155273 C51 64 51 64 51 65 C34.17 65 17.34 65 0 65 C0 43.55 0 22.1 0 0 Z " fill="#0101CC" transform="translate(323,0)"/>
<path d="M0 0 C14.19 0 28.38 0 43 0 C43 21.45 43 42.9 43 65 C28.81 65 14.62 65 0 65 C0 43.55 0 22.1 0 0 Z " fill="#FAFAFD" transform="translate(557,0)"/>
<path d="M0 0 C15.84 0 31.68 0 48 0 C48 21.45 48 42.9 48 65 C27.54 65 7.08 65 -14 65 C-14 57.74 -14 50.48 -14 43 C-10.596875 42.8453125 -10.596875 42.8453125 -7.125 42.6875 C0.74836485 42.22380834 9.78897079 41.29764256 16 36 C20.45261302 30.44525505 20.6602974 24.25874909 20.453125 17.35546875 C19.65796082 11.46714089 17.24974604 7.92835375 12.8125 4.125 C8.66264105 2.46505642 4.39824802 1.72592443 0 1 C0 0.67 0 0.34 0 0 Z " fill="#FCFCFE" transform="translate(201,0)"/>
<path d="M0 0 C16.5 0 33 0 50 0 C50 21.45 50 42.9 50 65 C40.76 65 31.52 65 22 65 C17.49924618 54.8733039 17.49924618 54.8733039 15.89355469 50.05297852 C15.53348328 48.97899307 15.17341187 47.90500763 14.8024292 46.79847717 C14.42934631 45.67001877 14.05626343 44.54156036 13.671875 43.37890625 C13.27800598 42.1977977 12.88413696 41.01668915 12.47833252 39.79978943 C11.44261198 36.6897072 10.4111081 33.57826641 9.38122559 30.46624756 C8.53573412 27.9162839 7.6846289 25.36820913 6.83347702 22.82013035 C5.81814335 19.77826305 4.8076365 16.7347953 3.796875 13.69140625 C3.22510529 11.97746422 3.22510529 11.97746422 2.64178467 10.22889709 C2.2943219 9.17697678 1.94685913 8.12505646 1.58886719 7.04125977 C1.28116394 6.11354263 0.97346069 5.1858255 0.65643311 4.22999573 C0 2 0 2 0 0 Z " fill="#FDFDFE" transform="translate(507,0)"/>
<path d="M0 0 C1.48831242 0.00667405 2.97660807 0.01863442 4.46484375 0.03515625 C5.22345703 0.03966797 5.98207031 0.04417969 6.76367188 0.04882812 C8.64326246 0.06064945 10.52281274 0.07858547 12.40234375 0.09765625 C14.25090073 5.49681424 16.09814487 10.89641927 17.94433594 16.29638672 C18.56835187 18.12104492 19.19268483 19.94559473 19.81738281 21.77001953 C24.75403562 36.18856049 29.58271634 50.63877402 34.40234375 65.09765625 C14.60234375 65.09765625 -5.19765625 65.09765625 -25.59765625 65.09765625 C-22.22188818 52.71983998 -22.22188818 52.71983998 -20.62060547 47.99951172 C-20.26368622 46.9424704 -19.90676697 45.88542908 -19.53903198 44.7963562 C-19.16392487 43.69695709 -18.78881775 42.59755798 -18.40234375 41.46484375 C-17.81297531 39.72716232 -17.81297531 39.72716232 -17.21170044 37.95437622 C-16.38802326 35.52860729 -15.56271483 33.10339169 -14.73583984 30.67871094 C-13.46498851 26.95015987 -12.20091984 23.21935617 -10.9375 19.48828125 C-10.13451552 17.12616575 -9.3311442 14.76418171 -8.52734375 12.40234375 C-8.14818817 11.28270233 -7.76903259 10.16306091 -7.37838745 9.00949097 C-7.02777252 7.98397125 -6.67715759 6.95845154 -6.31591797 5.90185547 C-5.85316971 4.54264481 -5.85316971 4.54264481 -5.381073 3.15597534 C-4.0701436 -0.28831025 -4.0247489 0.10924943 0 0 Z " fill="#0404CD" transform="translate(494.59765625,-0.09765625)"/>
<path d="M0 0 C14.19 0 28.38 0 43 0 C43 3.63 43 7.26 43 11 C38.05 11 33.1 11 28 11 C28 25.19 28 39.38 28 54 C32.95 54 37.9 54 43 54 C43 57.63 43 61.26 43 65 C28.81 65 14.62 65 0 65 C0 43.55 0 22.1 0 0 Z " fill="#0000CC" transform="translate(0,0)"/>
<path d="M0 0 C33.37837838 0 33.37837838 0 41.5625 5.3125 C47.03677861 11.34824309 47.54775835 16.68959318 47.33984375 24.58203125 C46.790744 30.10458624 45.4866038 33.85998036 41.234375 37.51953125 C32.06038118 43.78601916 22.67126861 43.19055837 12 43 C12 50.26 12 57.52 12 65 C8.04 65 4.08 65 0 65 C0 43.55 0 22.1 0 0 Z " fill="#0101CC" transform="translate(175,0)"/>
<path d="M0 0 C10.56 0 21.12 0 32 0 C32 21.45 32 42.9 32 65 C21.44 65 10.88 65 0 65 C0 43.55 0 22.1 0 0 Z " fill="#FEFEFE" transform="translate(143,0)"/>
<path d="M0 0 C13.86 0 27.72 0 42 0 C42 3.63 42 7.26 42 11 C32.1 11 22.2 11 12 11 C12 16.28 12 21.56 12 27 C21.24 27 30.48 27 40 27 C40 30.3 40 33.6 40 37 C30.76 37 21.52 37 12 37 C12 42.61 12 48.22 12 54 C21.9 54 31.8 54 42 54 C42 57.63 42 61.26 42 65 C28.14 65 14.28 65 0 65 C0 43.55 0 22.1 0 0 Z " fill="#0000CC" transform="translate(249,0)"/>
<path d="M0 0 C14.19 0 28.38 0 43 0 C43 3.63 43 7.26 43 11 C37.72 11 32.44 11 27 11 C27 25.19 27 39.38 27 54 C32.28 54 37.56 54 43 54 C43 57.63 43 61.26 43 65 C28.81 65 14.62 65 0 65 C0 61.37 0 57.74 0 54 C4.95 54 9.9 54 15 54 C15 39.81 15 25.62 15 11 C10.05 11 5.1 11 0 11 C0 7.37 0 3.74 0 0 Z " fill="#0000CC" transform="translate(401,0)"/>
<path d="M0 0 C2.60441489 3.47255319 4.17866368 6.30715577 5.91796875 10.2265625 C6.44970703 11.4228125 6.98144531 12.6190625 7.52929688 13.8515625 C7.93716431 14.7801709 7.93716431 14.7801709 8.35327148 15.72753906 C9.18912057 17.62868601 10.03437759 19.52544203 10.88085938 21.421875 C15 30.73646406 15 30.73646406 15 33 C21.435 32.505 21.435 32.505 28 32 C32.62 21.44 37.24 10.88 42 0 C42.33 0 42.66 0 43 0 C43 15.51 43 31.02 43 47 C28.81 47 14.62 47 0 47 C0 31.49 0 15.98 0 0 Z " fill="#FCFCFE" transform="translate(88,18)"/>
<path d="M0 0 C3.96 0 7.92 0 12 0 C12 17.82 12 35.64 12 54 C22.23 54 32.46 54 43 54 C43 57.63 43 61.26 43 65 C28.81 65 14.62 65 0 65 C0 43.55 0 22.1 0 0 Z " fill="#0000CC" transform="translate(557,0)"/>
<path d="M0 0 C5.28 0 10.56 0 16 0 C16 14.19 16 28.38 16 43 C10.72 43 5.44 43 0 43 C0 28.81 0 14.62 0 0 Z " fill="#F6F6FC" transform="translate(0,11)"/>
<path d="M0 0 C10.23 0 20.46 0 31 0 C29.17775774 6.07414088 27.55968068 11.40030467 25.08203125 17.1015625 C24.81992355 17.70890228 24.55781586 18.31624207 24.2877655 18.94198608 C23.46785484 20.83861996 22.64036884 22.73182847 21.8125 24.625 C21.24753604 25.92816407 20.68307932 27.23154817 20.11914062 28.53515625 C18.7519219 31.69265781 17.37789915 34.84714205 16 38 C13.25575853 35.25575853 12.18186753 31.9750863 10.7421875 28.4375 C10.43427277 27.69040771 10.12635803 26.94331543 9.80911255 26.17358398 C9.15954652 24.59425506 8.5124627 23.01390328 7.86767578 21.43261719 C6.87788019 19.00705809 5.87901724 16.58538384 4.87890625 14.1640625 C4.24945671 12.6304312 3.62053252 11.09658416 2.9921875 9.5625 C2.6922287 8.83538818 2.3922699 8.10827637 2.08322144 7.35913086 C0 2.23087114 0 2.23087114 0 0 Z " fill="#FBFBFE" transform="translate(94,0)"/>
<path d="M0 0 C4.29 0 8.58 0 13 0 C15.00508053 3.62227347 17.00425066 7.24759072 19 10.875 C19.57234375 11.90753906 20.1446875 12.94007812 20.734375 14.00390625 C21.27578125 14.99003906 21.8171875 15.97617187 22.375 16.9921875 C23.12910156 18.35899658 23.12910156 18.35899658 23.8984375 19.75341797 C25 22 25 22 25 24 C16.75 24 8.5 24 0 24 C0 16.08 0 8.16 0 0 Z " fill="#FAFAFD" transform="translate(335,41)"/>
<path d="M0 0 C14.7004339 -0.45001328 14.7004339 -0.45001328 20.62109375 4.30078125 C22.93781561 7.15566513 22.46508234 10.01493237 22.3515625 13.5546875 C21.84879825 17.05169217 20.65144583 18.70685766 18 21 C12.17480553 23.93310848 6.39098715 23.12911085 0 23 C0 15.41 0 7.82 0 0 Z " fill="#F2F2FB" transform="translate(187,10)"/>
<path d="M0 0 C2.35125 -0.061875 4.7025 -0.12375 7.125 -0.1875 C7.85348145 -0.21481201 8.58196289 -0.24212402 9.33251953 -0.27026367 C14.0010667 -0.32914283 17.04070582 0.57390431 21 3 C23.47035712 5.47035712 23.35042281 6.3960007 23.4375 9.8125 C23.36848565 13.79232763 23.18415298 14.75612172 20.6875 18.0625 C16.29003257 21.23276722 12.51801726 21.1252037 7.3125 21.0625 C3.6928125 21.0315625 3.6928125 21.0315625 0 21 C0 14.07 0 7.14 0 0 Z " fill="#F4F4FC" transform="translate(335,10)"/>
<path d="M0 0 C8.58 0 17.16 0 26 0 C27.32 4.62 28.64 9.24 30 14 C18.78 14 7.56 14 -4 14 C-1 2 -1 2 0 0 Z " fill="#FBFBFE" transform="translate(486,51)"/>
<path d="M0 0 C2 1 2 1 2.86962891 3.05371094 C3.15241699 3.93833008 3.43520508 4.82294922 3.7265625 5.734375 C4.0359375 6.70117188 4.3453125 7.66796875 4.6640625 8.6640625 C4.98117187 9.68242187 5.29828125 10.70078125 5.625 11.75 C5.94984375 12.75289062 6.2746875 13.75578125 6.609375 14.7890625 C8.105757 19.52970129 9 22.94467628 9 28 C3.39 28 -2.22 28 -8 28 C-6.64909235 21.50121609 -4.92169754 15.24896681 -2.875 8.9375 C-2.45927734 7.6390918 -2.45927734 7.6390918 -2.03515625 6.31445312 C-1.36031038 4.2084686 -0.68188659 2.10371313 0 0 Z " fill="#F5F5FC" transform="translate(498,12)"/>
</svg>
