<?xml version="1.0" encoding="UTF-8"?>
<svg version="1.1" xmlns="http://www.w3.org/2000/svg" width="1060" height="128">
<path d="M0 0 C26 0 26 0 31.875 5 C32.92659372 6.69445479 33.97617798 8.3925599 34.93066406 10.14355469 C36.88225546 13.53165994 39.36457547 16.53534735 41.75 19.625 C42.76530486 20.98658107 43.7782806 22.34990165 44.7890625 23.71484375 C48.17308435 28.25379681 51.64187587 32.72436383 55.125 37.1875 C55.71587402 37.94506592 56.30674805 38.70263184 56.91552734 39.4831543 C58.07046681 40.96351249 59.22557271 42.44374087 60.38085938 43.92382812 C62.71960505 46.92272637 65.0509928 49.92716858 67.375 52.9375 C68.08398438 53.85402344 68.79296875 54.77054688 69.5234375 55.71484375 C73.07810466 60.43010412 76.52683049 65.22439192 80 70 C80.33 46.9 80.66 23.8 81 0 C90.24 0 99.48 0 109 0 C109 39.6 109 79.2 109 120 C84 120 84 120 78.5625 114.8125 C77.33688167 112.56201117 76.15012847 110.28998794 75 108 C73.45212656 105.77393459 71.761633 103.67428418 70.0625 101.5625 C69.2176833 100.47188288 68.37523833 99.37942452 67.53515625 98.28515625 C67.11637207 97.74262207 66.69758789 97.20008789 66.26611328 96.64111328 C64.17432793 93.92977871 62.08739443 91.21471548 60 88.5 C59.16669027 87.41664851 58.33335693 86.33331518 57.5 85.25 C52.5 78.75 52.5 78.75 51.24926758 77.12402344 C50.41840713 76.0439211 49.58751536 74.96384285 48.7565918 73.88378906 C46.63516183 71.12622134 44.51432773 68.36819866 42.39453125 65.609375 C41.96205078 65.04669922 41.52957031 64.48402344 41.08398438 63.90429688 C39.89566421 62.35820289 38.70758852 60.81192101 37.51953125 59.265625 C34.35808849 55.16800307 31.17741557 51.08524859 28 47 C27.67 71.09 27.34 95.18 27 120 C18.09 120 9.18 120 0 120 C0 80.4 0 40.8 0 0 Z " fill="#193E72" transform="translate(0,1)"/>
<path d="M0 0 C11.983125 -0.0825 23.96625 -0.165 36.3125 -0.25 C41.9572644 -0.30462402 41.9572644 -0.30462402 47.71606445 -0.36035156 C52.36364746 -0.37841797 52.36364746 -0.37841797 54.54948425 -0.3817749 C56.0540492 -0.3878584 57.55859647 -0.40180267 59.06303406 -0.42230225 C71.46293843 -0.5826017 82.02220946 0.26384826 91.35546875 9.29296875 C91.89816406 9.85628906 92.44085938 10.41960938 93 11 C93.7425 11.7425 94.485 12.485 95.25 13.25 C101.84991593 23.62129646 102.68050435 35.34540258 100.375 47.21875 C97.33674891 56.87604812 90.89072283 63.51520741 82.078125 68.22265625 C80 69 80 69 76 69 C80.12725381 76.79433267 84.59214309 84.30224517 89.3125 91.75 C90.63378858 93.84964649 91.95410209 95.94990691 93.2734375 98.05078125 C93.90862305 99.06221191 94.54380859 100.07364258 95.19824219 101.11572266 C97.64671335 105.03526715 100.0565392 108.97664009 102.4375 112.9375 C102.8085083 113.55141602 103.1795166 114.16533203 103.56176758 114.79785156 C106 118.8753071 106 118.8753071 106 120 C79.20678042 123.78017749 79.20678042 123.78017749 71.22167969 117.98291016 C65.67713313 111.54584461 62.42523386 103.69750817 59 96 C57.03801856 91.94536282 54.93150071 88.00217368 52.75 84.0625 C52.34563721 83.16378174 51.94127441 82.26506348 51.5246582 81.33911133 C50.06786497 78.33674451 50.06786497 78.33674451 46 75 C39.73 74.67 33.46 74.34 27 74 C27 89.18 27 104.36 27 120 C18.09 120 9.18 120 0 120 C0 80.4 0 40.8 0 0 Z M27 24 C27 31.92 27 39.84 27 48 C31.99930575 48.06911483 36.99693391 48.1287727 41.99633789 48.16479492 C43.69463742 48.17982126 45.39289855 48.20024823 47.09106445 48.22631836 C49.54127518 48.26297449 51.99097 48.27978789 54.44140625 48.29296875 C55.19273331 48.30845261 55.94406036 48.32393646 56.71815491 48.33988953 C62.55195233 48.34172494 67.11620742 47.16583592 71.8828125 43.5859375 C74.09614223 40.44393795 74.10551837 36.74590197 74 33 C72.33620561 28.74808099 70.05588992 26.97848289 66 25 C62.07686498 23.64585955 58.04994234 23.87395901 53.953125 23.90234375 C52.79632233 23.90446617 52.79632233 23.90446617 51.6161499 23.90663147 C49.16072662 23.91221466 46.70539558 23.92476405 44.25 23.9375 C42.58203257 23.94251717 40.91406371 23.9470797 39.24609375 23.95117188 C35.16399864 23.96132634 31.0821022 23.98090493 27 24 Z " fill="#193E72" transform="translate(300,1)"/>
<path d="M0 0 C8.91 0 17.82 0 27 0 C27 15.84 27 31.68 27 48 C42.84 48 58.68 48 75 48 C75 32.16 75 16.32 75 0 C84.24 0 93.48 0 103 0 C103 39.6 103 79.2 103 120 C93.76 120 84.52 120 75 120 C75 104.82 75 89.64 75 74 C59.16 74 43.32 74 27 74 C27 89.18 27 104.36 27 120 C18.09 120 9.18 120 0 120 C0 80.4 0 40.8 0 0 Z " fill="#193E72" transform="translate(177,1)"/>
<path d="M0 0 C8.91 0 17.82 0 27 0 C27 39.6 27 79.2 27 120 C18.09 120 9.18 120 0 120 C0 80.4 0 40.8 0 0 Z " fill="#193E72" transform="translate(129,1)"/>
<path d="M0 0 C3.96 0 7.92 0 12 0 C12 39.6 12 79.2 12 120 C8.04 120 4.08 120 0 120 C0 80.4 0 40.8 0 0 Z " fill="#EA5D4E" transform="translate(444,1)"/>
<path d="M0 0 C3.96 -0.0825 7.92 -0.165 12 -0.25 C13.84851563 -0.30462402 13.84851563 -0.30462402 15.734375 -0.36035156 C22.62581267 -0.42953374 27.22909535 0.10736149 33 4 C35.65447023 8.46097709 35.84393923 12.92817105 35 18 C33.54607905 20.28473292 32.20438462 21.34671154 30 23 C30.78375 23.556875 31.5675 24.11375 32.375 24.6875 C35.24553506 27.2163047 36.17758503 28.29913262 37 32 C37.06509964 36.46746285 36.58789332 39.95988104 34.375 43.875 C27.66661652 49.87723785 20.62673211 49.37591422 12.0625 49.1875 C8.081875 49.125625 4.10125 49.06375 0 49 C0 32.83 0 16.66 0 0 Z M10 8 C10 12.29 10 16.58 10 21 C17.26269391 21.36049248 17.26269391 21.36049248 24 19 C25.39935013 16.20129973 25.25265405 14.09501208 25 11 C23.93378786 9.19800905 23.93378786 9.19800905 22 8 C19.02807238 7.63680691 19.02807238 7.63680691 15.8125 7.8125 C12.9353125 7.9053125 12.9353125 7.9053125 10 8 Z M10 28 C10 32.29 10 36.58 10 41 C18.1215703 41.74916019 18.1215703 41.74916019 25.3125 38.8125 C27.21214386 36.17123738 27.21214386 36.17123738 27.0625 33.375 C25.76405634 30.47259652 24.73510573 29.60428891 22 28 C18.9522555 27.63842121 18.9522555 27.63842121 15.75 27.8125 C13.8525 27.874375 11.955 27.93625 10 28 Z " fill="#193E72" transform="translate(746,1)"/>
<path d="M0 0 C3.375 2 3.375 2 6 4 C7.5159375 3.01 7.5159375 3.01 9.0625 2 C12.84248434 -0.14580929 15.62047095 -0.56771673 20 0 C23.68773373 1.67624261 25.85783496 3.57253594 28 7 C29.07917226 10.23751678 29.11425601 12.57751771 29.09765625 15.98046875 C29.09443359 17.14384766 29.09121094 18.30722656 29.08789062 19.50585938 C29.07532227 21.32827148 29.07532227 21.32827148 29.0625 23.1875 C29.05798828 24.41404297 29.05347656 25.64058594 29.04882812 26.90429688 C29.03703065 29.93624668 29.02056921 32.96809906 29 36 C25.7 36 22.4 36 19 36 C18.97494385 35.21761963 18.9498877 34.43523926 18.92407227 33.62915039 C18.80850212 30.10675051 18.68560051 26.5846444 18.5625 23.0625 C18.52318359 21.83080078 18.48386719 20.59910156 18.44335938 19.33007812 C18.40146484 18.16025391 18.35957031 16.99042969 18.31640625 15.78515625 C18.26141968 14.15912476 18.26141968 14.15912476 18.20532227 12.50024414 C18.27635735 10.060737 18.27635735 10.060737 17 9 C14.69 9 12.38 9 10 9 C9.67 17.91 9.34 26.82 9 36 C5.7 36 2.4 36 -1 36 C-1.02505615 35.21761963 -1.0501123 34.43523926 -1.07592773 33.62915039 C-1.19149788 30.10675051 -1.31439949 26.5846444 -1.4375 23.0625 C-1.47681641 21.83080078 -1.51613281 20.59910156 -1.55664062 19.33007812 C-1.59853516 18.16025391 -1.64042969 16.99042969 -1.68359375 15.78515625 C-1.72025146 14.70113525 -1.75690918 13.61711426 -1.79467773 12.50024414 C-1.72364265 10.060737 -1.72364265 10.060737 -3 9 C-5.31 9.33 -7.62 9.66 -10 10 C-10.33 18.58 -10.66 27.16 -11 36 C-14.3 36 -17.6 36 -21 36 C-21 24.45 -21 12.9 -21 1 C-18.36 1 -15.72 1 -13 1 C-12.34 1.66 -11.68 2.32 -11 3 C-10.29875 2.505 -9.5975 2.01 -8.875 1.5 C-5.48475614 -0.26882288 -3.77553457 -0.53936208 0 0 Z " fill="#193E72" transform="translate(861,14)"/>
<path d="M0 0 C23 0 23 0 31 4 C33.91096205 7.09289717 34.23406255 9.82559761 34.4375 13.9375 C34.22252778 20.8268479 30.71300439 24.34640323 26 29 C26.39380859 29.57032959 26.78761719 30.14065918 27.19335938 30.72827148 C28.96464096 33.29636776 30.73236355 35.86689356 32.5 38.4375 C33.43005859 39.78424805 33.43005859 39.78424805 34.37890625 41.15820312 C35.25869141 42.43920898 35.25869141 42.43920898 36.15625 43.74609375 C36.70087891 44.53685303 37.24550781 45.3276123 37.80664062 46.14233398 C39 48 39 48 39 49 C34.60169843 50.26334194 31.35912495 50.50570001 27 49 C23.74949651 45.58368367 21.42164519 41.57187883 19.09863281 37.49072266 C18.63424805 36.68038574 18.16986328 35.87004883 17.69140625 35.03515625 C17.09114624 33.91185913 17.09114624 33.91185913 16.47875977 32.76586914 C14.83080382 30.42373078 14.83080382 30.42373078 10 30 C10 36.27 10 42.54 10 49 C6.7 49 3.4 49 0 49 C0 32.83 0 16.66 0 0 Z M10 8 C10 12.95 10 17.9 10 23 C17.15672446 23.0267017 17.15672446 23.0267017 23 20 C24.54163175 16.9167365 24.29747535 14.39121901 24 11 C21.82369252 8.79856195 20.51257644 8.05824732 17.421875 7.70703125 C16.09929688 7.75923828 16.09929688 7.75923828 14.75 7.8125 C12.39875 7.9053125 12.39875 7.9053125 10 8 Z " fill="#193E72" transform="translate(497,72)"/>
<path d="M0 0 C3.7 1.4 3.7 1.4 5 4 C5.556875 3.71125 6.11375 3.4225 6.6875 3.125 C7.450625 2.75375 8.21375 2.3825 9 2 C10.0828125 1.4121875 10.0828125 1.4121875 11.1875 0.8125 C15.29024675 -0.37273795 18.89646871 -0.16712756 23 1 C26.24044458 3.56535196 27.69560167 5.086805 29 9 C29.08315752 11.06498892 29.10735878 13.1325789 29.09765625 15.19921875 C29.09443359 16.40771484 29.09121094 17.61621094 29.08789062 18.86132812 C29.07532227 20.7552832 29.07532227 20.7552832 29.0625 22.6875 C29.05798828 23.96173828 29.05347656 25.23597656 29.04882812 26.54882812 C29.03702873 29.69926564 29.02056597 32.84960949 29 36 C26.03 36 23.06 36 20 36 C19.970271 34.9330188 19.970271 34.9330188 19.93994141 33.84448242 C19.84475133 30.62511184 19.73504771 27.4063955 19.625 24.1875 C19.5940625 23.06794922 19.563125 21.94839844 19.53125 20.79492188 C19.47324219 19.18520508 19.47324219 19.18520508 19.4140625 17.54296875 C19.3826416 16.55321045 19.3512207 15.56345215 19.31884766 14.54370117 C19.16226567 11.75924906 19.16226567 11.75924906 17 9 C14.5 8.5 14.5 8.5 12 9 C9.77464206 12.33803691 9.71021596 13.62819711 9.5859375 17.54296875 C9.54726563 18.61611328 9.50859375 19.68925781 9.46875 20.79492188 C9.42234375 22.47424805 9.42234375 22.47424805 9.375 24.1875 C9.33632813 25.31865234 9.29765625 26.44980469 9.2578125 27.61523438 C9.16347467 30.4099925 9.07788348 33.20474278 9 36 C6.03 36 3.06 36 0 36 C-0.02505615 35.2886792 -0.0501123 34.5773584 -0.07592773 33.84448242 C-0.19188439 30.62530483 -0.31461245 27.40642015 -0.4375 24.1875 C-0.47681641 23.06794922 -0.51613281 21.94839844 -0.55664062 20.79492188 C-0.59853516 19.72177734 -0.64042969 18.64863281 -0.68359375 17.54296875 C-0.72025146 16.55321045 -0.75690918 15.56345215 -0.79467773 14.54370117 C-0.90790331 11.8781649 -0.90790331 11.8781649 -2 9 C-4.91652174 8.83318891 -4.91652174 8.83318891 -8 9 C-10.63991268 11.63991268 -10.30240797 12.97946296 -10.4140625 16.6640625 C-10.47207031 18.34628906 -10.47207031 18.34628906 -10.53125 20.0625 C-10.57765625 21.8259375 -10.57765625 21.8259375 -10.625 23.625 C-10.68300781 25.40003906 -10.68300781 25.40003906 -10.7421875 27.2109375 C-10.83668845 30.14046691 -10.92224558 33.06998597 -11 36 C-13.97 36 -16.94 36 -20 36 C-20 24.45 -20 12.9 -20 1 C-17.36 1 -14.72 1 -12 1 C-11.67 1.66 -11.34 2.32 -11 3 C-10.29875 2.505 -9.5975 2.01 -8.875 1.5 C-5.55518269 -0.23207859 -3.69542183 -0.39312998 0 0 Z " fill="#193E72" transform="translate(534,14)"/>
<path d="M0 0 C2.97 0 5.94 0 9 0 C9 16.5 9 33 9 50 C6.36 50 3.72 50 1 50 C0.67 49.01 0.34 48.02 0 47 C-0.474375 47.474375 -0.94875 47.94875 -1.4375 48.4375 C-5.17382901 50.7157494 -8.64638451 51.23493372 -13 51 C-16.93830089 49.79054099 -19.4534763 47.87366817 -21.6640625 44.33984375 C-23.18930108 40.5267473 -23.53738313 37.17531867 -23.5 33.125 C-23.49500488 32.41899658 -23.49000977 31.71299316 -23.48486328 30.9855957 C-23.29054661 25.18222784 -22.22975028 21.05118562 -18 17 C-13.31567827 13.66892677 -9.55410237 13.55208852 -4 14 C-2.68 14.66 -1.36 15.32 0 16 C0 10.72 0 5.44 0 0 Z M-12 24 C-14.41216689 28.02027815 -14.62823598 32.4268116 -14 37 C-12.84367254 39.36293002 -11.85016245 41.14983755 -10 43 C-5.42816664 42.71020771 -5.42816664 42.71020771 -1.29296875 40.92578125 C0.70396676 37.95149362 0.39418 34.89093052 0.3125 31.4375 C0.31572266 30.75236328 0.31894531 30.06722656 0.32226562 29.36132812 C0.37978386 25.22444949 0.37978386 25.22444949 -2 22 C-6.32881506 20.47906498 -8.46217185 21.13149069 -12 24 Z " fill="#193E72" transform="translate(952,0)"/>
<path d="M0 0 C2.11254985 1.50432121 2.81351467 2.88851288 3.77734375 5.265625 C2.45734375 6.915625 1.13734375 8.565625 -0.22265625 10.265625 C-5.97265625 8.390625 -5.97265625 8.390625 -8.22265625 7.265625 C-12.8042719 6.70666789 -16.35246823 6.87887477 -20.59765625 8.765625 C-24.89163349 12.85512713 -25.98691041 17.02603956 -26.59765625 22.828125 C-25.94595926 28.80201405 -23.92710227 33.44326261 -19.22265625 37.265625 C-14.45551098 38.85467342 -10.66816468 38.95946905 -6.09765625 36.765625 C-4.67453125 36.023125 -4.67453125 36.023125 -3.22265625 35.265625 C-0.53515625 34.828125 -0.53515625 34.828125 1.77734375 35.265625 C3.58984375 37.265625 3.58984375 37.265625 4.77734375 39.265625 C3.03783355 43.39371638 1.16242351 44.62258233 -2.8203125 46.4375 C-10.82900013 49.19821834 -18.53605792 48.75093672 -26.22265625 45.265625 C-31.53710146 42.13410245 -34.92514842 37.27844722 -36.8125 31.44140625 C-38.31708248 23.45995445 -37.90569016 15.50469165 -34.22265625 8.265625 C-26.12532727 -3.43051687 -12.61953909 -5.75067604 0 0 Z " fill="#193E72" transform="translate(808.22265625,73.734375)"/>
<path d="M0 0 C3.3 0 6.6 0 10 0 C10.33 5.61 10.66 11.22 11 17 C12.65 16.34 14.3 15.68 16 15 C20.99084809 14.55438856 24.05078573 14.8186885 28 18 C30.91624211 21.95459107 31.35966905 24.74415943 31.29296875 29.61328125 C31.28330078 30.86044922 31.27363281 32.10761719 31.26367188 33.39257812 C31.23853516 34.68615234 31.21339844 35.97972656 31.1875 37.3125 C31.16719727 39.28186523 31.16719727 39.28186523 31.14648438 41.29101562 C31.11117443 44.52776077 31.0618528 47.76367105 31 51 C28.03 51 25.06 51 22 51 C21.97494385 50.25314941 21.9498877 49.50629883 21.92407227 48.73681641 C21.80831787 45.36602733 21.68549872 41.99553217 21.5625 38.625 C21.52318359 37.449375 21.48386719 36.27375 21.44335938 35.0625 C21.40146484 33.94101563 21.35957031 32.81953125 21.31640625 31.6640625 C21.27974854 30.62717285 21.24309082 29.5902832 21.20532227 28.52197266 C21.15835777 26.00574834 21.15835777 26.00574834 20 24 C14.91696314 23.88679144 14.91696314 23.88679144 10 25 C10 33.58 10 42.16 10 51 C6.7 51 3.4 51 0 51 C0 34.17 0 17.34 0 0 Z " fill="#193E72" transform="translate(720,70)"/>
<path d="M0 0 C4.97899243 2.48949621 6.92810652 4.90361833 9 10 C9.33687125 12.73427168 9.52546964 15.15039304 9.5 17.875 C9.49427979 18.58100342 9.48855957 19.28700684 9.48266602 20.0144043 C9.31225143 24.98396911 8.64075012 28.65600405 5.54296875 32.578125 C2.2254448 35.63528631 -0.88294447 37.01712828 -5.4140625 36.98046875 C-11.5987303 36.4012697 -11.5987303 36.4012697 -13 35 C-13.33 38.96 -13.66 42.92 -14 47 C-16.97 47 -19.94 47 -23 47 C-23 31.82 -23 16.64 -23 1 C-20.36 1 -17.72 1 -15 1 C-14.67 1.99 -14.34 2.98 -14 4 C-13.401875 3.525625 -12.80375 3.05125 -12.1875 2.5625 C-8.21798098 -0.27287073 -4.76909777 -0.40416083 0 0 Z M-14 11 C-14.37891525 13.84335616 -14.5150751 16.23225993 -14.4375 19.0625 C-14.44458984 19.79533203 -14.45167969 20.52816406 -14.45898438 21.28320312 C-14.4689109 23.66080961 -14.4689109 23.66080961 -14 27 C-10.50875983 29.32749345 -9.10777749 29.50299316 -5 29 C-2.15219381 26.76793569 -1.15002334 25.45007001 0 22 C0.34954721 16.5820183 0.38917029 13.47370479 -3 9 C-4.09798661 7.68810584 -4.09798661 7.68810584 -6.8125 7.75 C-10.46668354 8.03660263 -11.53787765 8.3221789 -14 11 Z " fill="#193E72" transform="translate(592,14)"/>
<path d="M0 0 C3.73996946 3.37982425 5.7875487 6.7814014 6.2734375 11.85546875 C6.49890645 19.2525847 6.15284066 24.4320694 1 30 C-3.25787216 33.7712582 -8.5057486 33.96549921 -14 34 C-20.13782769 33.27178316 -22.78176038 30.59370861 -26.6171875 26.0703125 C-29.64498044 21.53717618 -29.49148963 16.28127952 -29 11 C-27.3507951 5.79198453 -25.24406064 2.45446796 -21 -1 C-13.9423658 -4.22196344 -6.70891236 -3.79749756 0 0 Z M-17.4375 6.8125 C-19.75341404 11.53696465 -19.75096692 15.83613471 -19 21 C-17.68944108 24.28904021 -17.68944108 24.28904021 -15 26 C-11.12389084 26.62294612 -9.00523011 26.60842875 -5.625 24.5625 C-3.2557861 20.82643193 -2.79330064 17.39236137 -3 13 C-3.69856325 10.31053148 -4.61602705 8.46039635 -6 6 C-10.06004139 3.9699793 -13.81493674 4.11879911 -17.4375 6.8125 Z " fill="#193E72" transform="translate(830,17)"/>
<path d="M0 0 C3.45025128 1.95514239 5.27511229 3.49074502 6.6875 7.3125 C7.25229057 10.63906463 7.66248659 13.93568905 7.6875 17.3125 C6.6875 18.3125 6.6875 18.3125 4.55444336 18.42602539 C3.63800049 18.42078857 2.72155762 18.41555176 1.77734375 18.41015625 C0.78798828 18.40693359 -0.20136719 18.40371094 -1.22070312 18.40039062 C-2.26162109 18.39201172 -3.30253906 18.38363281 -4.375 18.375 C-5.41978516 18.37048828 -6.46457031 18.36597656 -7.54101562 18.36132812 C-10.1315666 18.34949913 -12.72200559 18.33301689 -15.3125 18.3125 C-13.78694034 23.12372847 -13.78694034 23.12372847 -10.3125 26.3125 C-5.88765032 26.55832498 -3.19784522 26.32216132 0.6875 24.3125 C3.67720481 24.66422998 4.51461465 25.13961465 6.6875 27.3125 C6.6875 29.25 6.6875 29.25 5.6875 31.3125 C0.37176756 34.99262246 -6.22726706 36.04428955 -12.55859375 34.91015625 C-17.72464576 33.259754 -20.32473308 30.79415038 -23.3125 26.3125 C-26.06773405 20.27722542 -26.16283568 14.29179315 -24.125 8.0625 C-22.20552466 3.46657313 -19.32146929 1.39842935 -15 -0.9375 C-9.52815382 -2.46452684 -5.12541453 -2.32716432 0 0 Z M-15.3125 10.3125 C-15.3125 10.9725 -15.3125 11.6325 -15.3125 12.3125 C-10.6925 12.3125 -6.0725 12.3125 -1.3125 12.3125 C-2.29135993 8.00001735 -2.29135993 8.00001735 -5.3125 5.3125 C-10.28589205 4.26547009 -12.23607611 6.62079133 -15.3125 10.3125 Z " fill="#193E72" transform="translate(838.3125,86.6875)"/>
<path d="M0 0 C3.86474354 2.45938225 6.28441109 4.35323328 7.75 8.75 C7.75 12.05 7.75 15.35 7.75 18.75 C0.49 19.08 -6.77 19.41 -14.25 19.75 C-12.08333333 25.58333333 -12.08333333 25.58333333 -9.25 26.75 C-4.82515032 26.99582498 -2.13534522 26.75966132 1.75 24.75 C4.73970481 25.10172998 5.57711465 25.57711465 7.75 27.75 C7.75 29.6875 7.75 29.6875 6.75 31.75 C1.04653572 35.17207857 -3.62970503 36.19883356 -10.25 35.75 C-15.4303903 34.05297559 -18.800428 31.98804559 -22.25 27.75 C-24.99159743 22.13625288 -25.36481278 15.44915148 -23.5625 9.46875 C-21.43361587 4.7142421 -18.92890958 2.23878169 -14.25 -0.25 C-9.20222786 -1.93259071 -4.89935987 -1.88436918 0 0 Z M-14.25 9.75 C-14.25 10.74 -14.25 11.73 -14.25 12.75 C-9.63 12.75 -5.01 12.75 -0.25 12.75 C-1.72639003 7.68991361 -1.72639003 7.68991361 -5.25 5.75 C-9.92834007 5.75 -10.9809841 6.5717901 -14.25 9.75 Z " fill="#193E72" transform="translate(628.25,15.25)"/>
<path d="M0 0 C4.23244291 5.34624367 5.2502389 9.24354981 5 16 C4 17 4 17 1.86694336 17.11352539 C0.95050049 17.10828857 0.03405762 17.10305176 -0.91015625 17.09765625 C-1.89951172 17.09443359 -2.88886719 17.09121094 -3.90820312 17.08789062 C-4.94912109 17.07951172 -5.99003906 17.07113281 -7.0625 17.0625 C-8.10728516 17.05798828 -9.15207031 17.05347656 -10.22851562 17.04882812 C-12.8190666 17.03699913 -15.40950559 17.02051689 -18 17 C-16.47444034 21.81122847 -16.47444034 21.81122847 -13 25 C-8.28292346 25.33149276 -8.28292346 25.33149276 -3.875 23.9375 C-1.30252959 22.6512648 0.2992139 23.24978164 3 24 C3.33 25.65 3.66 27.3 4 29 C-0.07232236 32.73296216 -4.90634162 33.94765383 -10.30859375 34.0390625 C-16.88781456 33.57308059 -20.8510889 31.38122581 -25.3125 26.4375 C-28.23708847 20.48000496 -28.9872176 13.99786225 -26.875 7.625 C-24.85289982 3.13961416 -21.97589946 0.12145645 -17.6875 -2.3125 C-11.11220013 -3.99455346 -5.88601459 -3.39577765 0 0 Z M-18 9 C-18 9.66 -18 10.32 -18 11 C-13.38 11 -8.76 11 -4 11 C-4.33 9.35 -4.66 7.7 -5 6 C-10.8486494 2.1009004 -13.69530756 3.83436908 -18 9 Z " fill="#193E72" transform="translate(561,88)"/>
<path d="M0 0 C3.43643484 1.94057497 5.25634904 3.52415923 6.6875 7.3125 C8.19757557 15.29234887 8.19757557 15.29234887 6.6875 18.3125 C-0.5725 18.3125 -7.8325 18.3125 -15.3125 18.3125 C-13.30098737 25.08739892 -13.30098737 25.08739892 -10.3125 26.3125 C-5.88765032 26.55832498 -3.19784522 26.32216132 0.6875 24.3125 C3.67720481 24.66422998 4.51461465 25.13961465 6.6875 27.3125 C6.6875 29.25 6.6875 29.25 5.6875 31.3125 C0.37176756 34.99262246 -6.22726706 36.04428955 -12.55859375 34.91015625 C-17.72464576 33.259754 -20.32473308 30.79415038 -23.3125 26.3125 C-25.86098351 20.85146391 -26.41986948 14.87999144 -24.625 9.09765625 C-22.48583281 4.31126966 -20.02735728 1.82040281 -15.3125 -0.6875 C-9.85926079 -2.5052464 -5.18256242 -2.37135698 0 0 Z M-15.3125 10.3125 C-15.3125 10.9725 -15.3125 11.6325 -15.3125 12.3125 C-10.6925 12.3125 -6.0725 12.3125 -1.3125 12.3125 C-2.29135993 8.00001735 -2.29135993 8.00001735 -5.3125 5.3125 C-10.28589205 4.26547009 -12.23607611 6.62079133 -15.3125 10.3125 Z " fill="#193E72" transform="translate(956.3125,86.6875)"/>
<path d="M0 0 C3.9323173 2.65202795 6.18648186 5.30944559 7.6875 9.8125 C7.86562624 12.5053496 7.77477698 15.10691368 7.6875 17.8125 C6.6875 18.8125 6.6875 18.8125 4.55444336 18.92602539 C3.63800049 18.92078857 2.72155762 18.91555176 1.77734375 18.91015625 C0.78798828 18.90693359 -0.20136719 18.90371094 -1.22070312 18.90039062 C-2.26162109 18.89201172 -3.30253906 18.88363281 -4.375 18.875 C-5.41978516 18.87048828 -6.46457031 18.86597656 -7.54101562 18.86132812 C-10.1315666 18.84949913 -12.72200559 18.83301689 -15.3125 18.8125 C-13.28616931 23.13621893 -13.28616931 23.13621893 -10.3125 26.8125 C-5.15702833 27.21685072 -1.14662897 26.39099109 3.6875 24.8125 C5.0075 26.1325 6.3275 27.4525 7.6875 28.8125 C3.92412422 33.28150874 0.4606287 35.23311791 -5.3125 35.8125 C-11.3308548 35.89410481 -15.68767582 34.89955393 -20.3125 30.8125 C-24.87914957 25.28445052 -24.91607061 20.11783043 -24.69921875 13.06640625 C-24.04361063 7.55002682 -21.7351812 5.09638303 -17.75 1.5 C-12.34198239 -2.24401219 -6.04582985 -2.16737296 0 0 Z M-14.3125 9.8125 C-14.6425 10.8025 -14.9725 11.7925 -15.3125 12.8125 C-10.6925 12.8125 -6.0725 12.8125 -1.3125 12.8125 C-1.6425 11.1625 -1.9725 9.5125 -2.3125 7.8125 C-7.45535893 4.38392738 -10.48282019 5.02540023 -14.3125 9.8125 Z " fill="#193E72" transform="translate(621.3125,86.1875)"/>
<path d="M0 0 C3.63114176 3.82225449 5.14439207 6.86975012 5.125 12.125 C5 16 5 16 4 17 C2.36527118 17.08700342 0.72685945 17.10701063 -0.91015625 17.09765625 C-1.89951172 17.09443359 -2.88886719 17.09121094 -3.90820312 17.08789062 C-4.94912109 17.07951172 -5.99003906 17.07113281 -7.0625 17.0625 C-8.10728516 17.05798828 -9.15207031 17.05347656 -10.22851562 17.04882812 C-12.8190666 17.03699913 -15.40950559 17.02051689 -18 17 C-15.97366931 21.32371893 -15.97366931 21.32371893 -13 25 C-7.76257341 25.34916177 -3.93367197 24.97346879 1 23 C2.32 24.32 3.64 25.64 5 27 C1.29517317 31.26616423 -1.39910027 33.08181972 -7 34 C-13.3143804 34.08018261 -18.17220854 33.3680018 -23 29 C-27.94346553 22.88571369 -27.80792413 16.64572105 -27 9 C-25.10619299 3.31857898 -21.85327943 0.50172601 -16.625 -2.25 C-10.4099014 -4.02574246 -5.61413328 -3.07188425 0 0 Z M-16 6 C-16.66 7.65 -17.32 9.3 -18 11 C-13.05 11 -8.1 11 -3 11 C-5.17290076 4.89772681 -5.17290076 4.89772681 -8.9375 4 C-12.11321049 4 -13.51785139 4.04974038 -16 6 Z " fill="#193E72" transform="translate(921,17)"/>
<path d="M0 0 C3.6974306 4.07992343 4.12388079 7.60443746 4.09765625 12.98046875 C4.09443359 14.14384766 4.09121094 15.30722656 4.08789062 16.50585938 C4.07951172 17.72080078 4.07113281 18.93574219 4.0625 20.1875 C4.05798828 21.41404297 4.05347656 22.64058594 4.04882812 23.90429688 C4.03703065 26.93624668 4.02056921 29.96809906 4 33 C0.625 33.125 0.625 33.125 -3 33 C-3.66 32.34 -4.32 31.68 -5 31 C-5.969375 31.515625 -6.93875 32.03125 -7.9375 32.5625 C-12.4420652 34.49433589 -16.30708514 34.1437278 -21 33 C-23.5 32 -23.5 32 -25 30 C-26.2951455 25.58628046 -26.65630655 22.25792089 -24.5 18.125 C-18.8617094 13.33245299 -13.16539927 12.47119406 -6 12 C-6.37904208 8.70924004 -6.37904208 8.70924004 -8 6 C-11.09964553 5.79335696 -13.31431753 5.65715877 -16.125 7.0625 C-18 8 -18 8 -20.125 7.75 C-22 7 -22 7 -24 5 C-23.9375 3.0625 -23.9375 3.0625 -23 1 C-15.93525656 -4.15535332 -7.40493123 -4.82181568 0 0 Z M-16 21 C-16.98617135 22.94285168 -16.98617135 22.94285168 -17 25 C-16.34 25.66 -15.68 26.32 -15 27 C-10.86169011 26.69903201 -8.48152976 26.32101984 -5 24 C-4.74969023 21.41619823 -4.74969023 21.41619823 -5 19 C-10.86350756 18.6245865 -10.86350756 18.6245865 -16 21 Z " fill="#193E72" transform="translate(1038,17)"/>
<path d="M0 0 C3.6974306 4.07992343 4.12388079 7.60443746 4.09765625 12.98046875 C4.09443359 14.14384766 4.09121094 15.30722656 4.08789062 16.50585938 C4.07951172 17.72080078 4.07113281 18.93574219 4.0625 20.1875 C4.05798828 21.41404297 4.05347656 22.64058594 4.04882812 23.90429688 C4.03703065 26.93624668 4.02056921 29.96809906 4 33 C0.625 33.125 0.625 33.125 -3 33 C-3.66 32.34 -4.32 31.68 -5 31 C-5.969375 31.515625 -6.93875 32.03125 -7.9375 32.5625 C-12.43747876 34.49236894 -16.31186847 34.15162999 -21 33 C-23.5 31.9375 -23.5 31.9375 -25 30 C-26.01914217 25.78754571 -26.45437119 23.33282214 -25.0625 19.25 C-19.88655817 13.603518 -13.40200332 12.34268534 -6 12 C-6.37904208 8.70924004 -6.37904208 8.70924004 -8 6 C-11.09964553 5.79335696 -13.31431753 5.65715877 -16.125 7.0625 C-18 8 -18 8 -20.125 7.75 C-22 7 -22 7 -24 5 C-23.9375 3.0625 -23.9375 3.0625 -23 1 C-15.93525656 -4.15535332 -7.40493123 -4.82181568 0 0 Z M-16 21 C-16.98617135 22.94285168 -16.98617135 22.94285168 -17 25 C-16.34 25.66 -15.68 26.32 -15 27 C-10.86169011 26.69903201 -8.48152976 26.32101984 -5 24 C-4.74969023 21.41619823 -4.74969023 21.41619823 -5 19 C-10.86350756 18.6245865 -10.86350756 18.6245865 -16 21 Z " fill="#193E72" transform="translate(704,17)"/>
<path d="M0 0 C3.50528703 2.46963405 4.73304175 4.87688849 5.75 8.9375 C6.10330542 13.42447888 6.03318505 17.87780269 5.9375 22.375 C5.91719727 24.18774414 5.91719727 24.18774414 5.89648438 26.03710938 C5.86129946 29.00437082 5.81206696 31.97069937 5.75 34.9375 C2.45 34.9375 -0.85 34.9375 -4.25 34.9375 C-4.27505615 34.15511963 -4.3001123 33.37273926 -4.32592773 32.56665039 C-4.44149788 29.04425051 -4.56439949 25.5221444 -4.6875 22 C-4.72681641 20.76830078 -4.76613281 19.53660156 -4.80664062 18.26757812 C-4.84853516 17.09775391 -4.89042969 15.92792969 -4.93359375 14.72265625 C-4.97025146 13.63863525 -5.00690918 12.55461426 -5.04467773 11.43774414 C-4.97364265 8.998237 -4.97364265 8.998237 -6.25 7.9375 C-10.28160191 7.67456944 -11.80892734 7.64345156 -15.25 9.9375 C-15.76012565 12.54946291 -15.76012565 12.54946291 -15.76171875 15.6015625 C-15.79716797 16.72304687 -15.83261719 17.84453125 -15.86914062 19 C-15.90297852 20.7634375 -15.90297852 20.7634375 -15.9375 22.5625 C-15.97166016 23.74585937 -16.00582031 24.92921875 -16.04101562 26.1484375 C-16.12370575 29.0780306 -16.19278714 32.0073164 -16.25 34.9375 C-19.22 34.9375 -22.19 34.9375 -25.25 34.9375 C-25.25 23.3875 -25.25 11.8375 -25.25 -0.0625 C-22.61 -0.0625 -19.97 -0.0625 -17.25 -0.0625 C-16.92 0.5975 -16.59 1.2575 -16.25 1.9375 C-14.9815625 1.195 -14.9815625 1.195 -13.6875 0.4375 C-8.69474207 -1.74115801 -5.15128914 -1.6840753 0 0 Z " fill="#193E72" transform="translate(875.25,86.0625)"/>
<path d="M0 0 C3.00607451 2.07562287 4.04146309 3.53837258 5.625 6.8125 C5.96557617 9.95043945 5.96557617 9.95043945 5.91796875 13.42578125 C5.90830078 14.67294922 5.89863281 15.92011719 5.88867188 17.20507812 C5.86353516 18.49865234 5.83839844 19.79222656 5.8125 21.125 C5.79219727 23.09436523 5.79219727 23.09436523 5.77148438 25.10351562 C5.73617443 28.34026077 5.6868528 31.57617105 5.625 34.8125 C3.645 34.8125 1.665 34.8125 -0.375 34.8125 C-0.705 33.8225 -1.035 32.8325 -1.375 31.8125 C-2.014375 32.286875 -2.65375 32.76125 -3.3125 33.25 C-8.13157323 35.70871083 -12.96681407 36.38837055 -18.25 35.125 C-20.83754553 33.52681011 -22.00427568 32.55394864 -23.375 29.8125 C-24.00157464 24.87822475 -24.22517977 22.96274322 -21.25 18.9375 C-15.73435802 14.86072114 -10.02069954 14.37369241 -3.375 13.8125 C-4.035 11.8325 -4.695 9.8525 -5.375 7.8125 C-10.19860189 7.61955592 -13.87146738 8.05502386 -18.375 9.8125 C-19.75062854 8.52284824 -21.08266393 7.18560707 -22.375 5.8125 C-22.375 5.1525 -22.375 4.4925 -22.375 3.8125 C-14.65506512 -0.7001968 -8.68481021 -3.05576656 0 0 Z M-12.8125 22.0625 C-14.81901051 23.91878502 -14.81901051 23.91878502 -14.375 27.8125 C-10.85379408 28.71327361 -8.92921722 29.02936761 -5.5 27.6875 C-3.09142603 25.98331516 -3.09142603 25.98331516 -3.0625 23.125 C-3.165625 22.361875 -3.26875 21.59875 -3.375 20.8125 C-8.26793092 20.50237164 -8.26793092 20.50237164 -12.8125 22.0625 Z " fill="#193E72" transform="translate(654.375,86.1875)"/>
<path d="M0 0 C1.94202011 0.97618418 3.83222572 1.99321758 5.69921875 3.10546875 C5.03921875 4.75546875 4.37921875 6.40546875 3.69921875 8.10546875 C-0.26078125 7.77546875 -4.22078125 7.44546875 -8.30078125 7.10546875 C-8.63078125 8.42546875 -8.96078125 9.74546875 -9.30078125 11.10546875 C-8.46933594 11.42 -7.63789062 11.73453125 -6.78125 12.05859375 C-5.69457031 12.4865625 -4.60789062 12.91453125 -3.48828125 13.35546875 C-1.86986328 13.98195313 -1.86986328 13.98195313 -0.21875 14.62109375 C2.81007711 16.16186256 4.08183013 17.15415136 5.69921875 20.10546875 C6.09763499 24.28883927 6.09763579 26.98492081 4.69921875 30.91796875 C1.78855683 34.10150522 -1.08439911 35.31046067 -5.30078125 36.10546875 C-10.95748218 36.24301771 -15.70164754 35.63147126 -20.30078125 32.10546875 C-19.97078125 30.45546875 -19.64078125 28.80546875 -19.30078125 27.10546875 C-14.79062324 25.85264708 -14.79062324 25.85264708 -12.36328125 27.10546875 C-9.44718014 28.51933595 -7.38382788 27.80616117 -4.30078125 27.10546875 C-4.34185733 25.16346318 -4.34185733 25.16346318 -5.30078125 23.10546875 C-8.00075712 21.62699104 -8.00075712 21.62699104 -11.23828125 20.54296875 C-17.09522278 18.41380645 -17.09522278 18.41380645 -19.30078125 15.10546875 C-19.90217442 11.69371901 -19.93672849 8.5134937 -19.30078125 5.10546875 C-14.90799405 -1.03334744 -6.83401818 -2.65702914 0 0 Z " fill="#193E72" transform="translate(588.30078125,85.89453125)"/>
<path d="M0 0 C2.31 0 4.62 0 7 0 C7 3.63 7 7.26 7 11 C9.97 11 12.94 11 16 11 C16 13.31 16 15.62 16 18 C13.03 18 10.06 18 7 18 C7.33 24.6 7.66 31.2 8 38 C9.98 38 11.96 38 14 38 C16.04040776 40.04040776 17 41.08325244 17 44 C11.53185998 46.39830703 7.96642658 47.72108459 2 46 C-0.86942113 43.73466753 -1.83907612 42.48277163 -3 39 C-3.08143855 37.37280518 -3.1075302 35.74248281 -3.09765625 34.11328125 C-3.09443359 33.17548828 -3.09121094 32.23769531 -3.08789062 31.27148438 C-3.07951172 30.29501953 -3.07113281 29.31855469 -3.0625 28.3125 C-3.05798828 27.32443359 -3.05347656 26.33636719 -3.04882812 25.31835938 C-3.03704303 22.87884526 -3.02059011 20.43945311 -3 18 C-4.65 17.67 -6.3 17.34 -8 17 C-8 15.35 -8 13.7 -8 12 C-6.02 11.67 -4.04 11.34 -2 11 C-1.93941406 10.37351562 -1.87882813 9.74703125 -1.81640625 9.1015625 C-1.73261719 8.28429687 -1.64882813 7.46703125 -1.5625 6.625 C-1.48128906 5.81289062 -1.40007813 5.00078125 -1.31640625 4.1640625 C-1 2 -1 2 0 0 Z " fill="#193E72" transform="translate(891,75)"/>
<path d="M0 0 C2.59892058 1.77487259 3.550168 2.81423721 4.5625 5.75 C3.375 7.3125 3.375 7.3125 1.5625 8.75 C-0.625 8.4375 -0.625 8.4375 -3.4375 7.75 C-6.30018291 7.38586225 -8.49930746 7.46565879 -11.4375 7.75 C-14.39791379 10.61790086 -14.62602704 13.35841509 -14.75 17.3125 C-14.73265193 20.64911151 -14.20462275 22.89637775 -12.4375 25.75 C-9.66649606 27.13550197 -7.5040294 26.9377467 -4.4375 26.75 C-3.4475 26.09 -2.4575 25.43 -1.4375 24.75 C1.52326291 25.10888035 2.40908021 25.59658021 4.5625 27.75 C4.5 29.6875 4.5 29.6875 3.5625 31.75 C-0.68680542 35.45100795 -5.98514468 35.89482819 -11.4375 35.75 C-15.99245418 34.70615633 -19.61552072 32.47904405 -22.4375 28.75 C-25.26019127 23.17761809 -26.46720532 17.91671454 -24.93359375 11.7109375 C-23.10436321 6.12917115 -20.35482281 2.45177164 -15.1875 -0.5625 C-9.85981972 -1.89442007 -5.17395198 -1.88143708 0 0 Z " fill="#193E72" transform="translate(712.4375,86.25)"/>
<path d="M0 0 C-0.50603992 2.16874252 -0.99983813 3.99967627 -2 6 C-2.90363281 5.89300781 -3.80726563 5.78601562 -4.73828125 5.67578125 C-6.50751953 5.49595703 -6.50751953 5.49595703 -8.3125 5.3125 C-10.07013672 5.12107422 -10.07013672 5.12107422 -11.86328125 4.92578125 C-14.96060571 4.70058695 -14.96060571 4.70058695 -16.85546875 6.35546875 C-18.81515642 9.17126571 -19.15929747 10.97941547 -19.1875 14.375 C-19.20876953 15.53128906 -19.20876953 15.53128906 -19.23046875 16.7109375 C-18.97404645 19.2577759 -18.35625154 20.83951509 -17 23 C-13.19044361 24.90477819 -9.59283679 24.17565535 -5.625 23 C-4.75875 22.67 -3.8925 22.34 -3 22 C-1.4375 23.25 -1.4375 23.25 0 25 C0 27 0 27 -1 29 C-5.25807245 32.70864375 -10.54045767 33.12815827 -16 33 C-21.74182036 31.39982056 -24.72540479 28.95867274 -28 24 C-30.35431658 18.44802956 -30.48882402 12.81504454 -29 7 C-26.47465607 2.21988471 -23.25893504 -1.69642598 -18.125 -3.75 C-10.75319444 -4.61727124 -6.48588925 -3.24294463 0 0 Z " fill="#193E72" transform="translate(1011,18)"/>
<path d="M0 0 C3.3 0 6.6 0 10 0 C10 16.17 10 32.34 10 49 C6.7 49 3.4 49 0 49 C0 32.83 0 16.66 0 0 Z " fill="#193E72" transform="translate(497,1)"/>
<path d="M0 0 C2.97 0 5.94 0 9 0 C9 16.5 9 33 9 50 C6.03 50 3.06 50 0 50 C0 33.5 0 17 0 0 Z " fill="#193E72" transform="translate(1048,0)"/>
<path d="M0 0 C2.97 0 5.94 0 9 0 C9 16.5 9 33 9 50 C6.03 50 3.06 50 0 50 C0 33.5 0 17 0 0 Z " fill="#193E72" transform="translate(714,0)"/>
<path d="M0 0 C0.33 0.33 0.66 0.66 1 1 C0.82364548 3.69082872 0.38164079 6.32851446 0 9 C-0.93972656 9.14695312 -0.93972656 9.14695312 -1.8984375 9.296875 C-2.71570313 9.44640625 -3.53296875 9.5959375 -4.375 9.75 C-5.18710937 9.88921875 -5.99921875 10.0284375 -6.8359375 10.171875 C-9.11365066 10.79728809 -9.11365066 10.79728809 -10.109375 12.74023438 C-11.10808493 15.2742418 -11.31463308 17.26663743 -11.4140625 19.984375 C-11.47207031 21.38623047 -11.47207031 21.38623047 -11.53125 22.81640625 C-11.57765625 24.26853516 -11.57765625 24.26853516 -11.625 25.75 C-11.68300781 27.22533203 -11.68300781 27.22533203 -11.7421875 28.73046875 C-11.8362797 31.15334289 -11.91922152 33.57664545 -12 36 C-14.97 36 -17.94 36 -21 36 C-21 24.45 -21 12.9 -21 1 C-18.36 1 -15.72 1 -13 1 C-12.34 1.66 -11.68 2.32 -11 3 C-10.484375 2.505 -9.96875 2.01 -9.4375 1.5 C-6.17070493 -0.51033543 -3.76579264 -0.28421077 0 0 Z " fill="#193E72" transform="translate(687,85)"/>
<path d="M0 0 C1.10844919 3.32534757 0.84454356 5.62182575 0 9 C-0.93972656 9.14695312 -0.93972656 9.14695312 -1.8984375 9.296875 C-2.71570313 9.44640625 -3.53296875 9.5959375 -4.375 9.75 C-5.18710937 9.88921875 -5.99921875 10.0284375 -6.8359375 10.171875 C-9.11365066 10.79728809 -9.11365066 10.79728809 -10.109375 12.74023438 C-11.10808493 15.2742418 -11.31463308 17.26663743 -11.4140625 19.984375 C-11.47207031 21.38623047 -11.47207031 21.38623047 -11.53125 22.81640625 C-11.57765625 24.26853516 -11.57765625 24.26853516 -11.625 25.75 C-11.68300781 27.22533203 -11.68300781 27.22533203 -11.7421875 28.73046875 C-11.8362797 31.15334289 -11.91922152 33.57664545 -12 36 C-14.97 36 -17.94 36 -21 36 C-21 24.45 -21 12.9 -21 1 C-18.36 1 -15.72 1 -13 1 C-13 1.99 -13 2.98 -13 4 C-12.154375 3.34 -11.30875 2.68 -10.4375 2 C-6.56563053 -0.25272405 -4.39721203 -0.35177696 0 0 Z " fill="#193E72" transform="translate(931,85)"/>
<path d="M0 0 C1 1 1 1 1.09765625 2.84765625 C1.06510417 4.8984375 1.03255208 6.94921875 1 9 C0.37351562 9.10957031 -0.25296875 9.21914063 -0.8984375 9.33203125 C-1.71570313 9.49058594 -2.53296875 9.64914063 -3.375 9.8125 C-4.59316406 10.03873047 -4.59316406 10.03873047 -5.8359375 10.26953125 C-8.35820641 10.87544942 -8.35820641 10.87544942 -10 14 C-10.3663859 16.41713479 -10.3663859 16.41713479 -10.4140625 19.10546875 C-10.47207031 20.57983398 -10.47207031 20.57983398 -10.53125 22.08398438 C-10.5621875 23.10814453 -10.593125 24.13230469 -10.625 25.1875 C-10.68300781 26.74114258 -10.68300781 26.74114258 -10.7421875 28.32617188 C-10.83648296 30.88393622 -10.92208202 33.44169287 -11 36 C-13.97 36 -16.94 36 -20 36 C-20 24.45 -20 12.9 -20 1 C-17.69 1 -15.38 1 -13 1 C-12.34 1.99 -11.68 2.98 -11 4 C-10.29875 3.34 -9.5975 2.68 -8.875 2 C-5.55622323 -0.30871428 -3.95355026 -0.44926708 0 0 Z " fill="#193E72" transform="translate(661,14)"/>
<path d="M0 0 C3.3 0 6.6 0 10 0 C10 11.55 10 23.1 10 35 C6.7 35 3.4 35 0 35 C0 23.45 0 11.9 0 0 Z " fill="#193E72" transform="translate(787,15)"/>
<path d="M0 0 C2.97 0 5.94 0 9 0 C9 11.55 9 23.1 9 35 C6.03 35 3.06 35 0 35 C0 23.45 0 11.9 0 0 Z " fill="#193E72" transform="translate(968,15)"/>
<path d="M0 0 C2.97 0 5.94 0 9 0 C9 11.55 9 23.1 9 35 C6.03 35 3.06 35 0 35 C0 23.45 0 11.9 0 0 Z " fill="#193E72" transform="translate(665,15)"/>
<path d="M0 0 C3.625 0.3125 3.625 0.3125 5.625 2 C6.88826211 4.92129364 6.64516252 6.33048647 5.625 9.3125 C3.625 11.3125 3.625 11.3125 0.6875 11.6875 C-2.375 11.3125 -2.375 11.3125 -4.3125 9.6875 C-5.72668205 6.52638719 -5.25377792 4.60791719 -4.375 1.3125 C-3.375 0.3125 -3.375 0.3125 0 0 Z " fill="#193E72" transform="translate(791.375,-0.3125)"/>
<path d="M0 0 C1.7015625 0.2475 1.7015625 0.2475 3.4375 0.5 C5.59252531 3.73253796 5.90606135 4.75150923 5.4375 8.5 C4.375 10.375 4.375 10.375 2.4375 11.5 C-1.25 11.1875 -1.25 11.1875 -4.5625 10.5 C-5.75 8.3125 -5.75 8.3125 -6.5625 5.5 C-5.17379196 1.33387589 -4.40184853 0.6178033 0 0 Z " fill="#193E72" transform="translate(972.5625,-0.5)"/>
<path d="M0 0 C3.5 0.25 3.5 0.25 5.5 2.25 C5.82954432 5.34771665 5.95334601 7.42331023 4.4375 10.1875 C1.31857551 11.89787795 -1.15557801 11.05513863 -4.5 10.25 C-5.88125018 7.48749964 -5.69079306 5.30268901 -5.5 2.25 C-3.5 0.25 -3.5 0.25 0 0 Z " fill="#193E72" transform="translate(669.5,-0.25)"/>
</svg>
