<?xml version="1.0" encoding="UTF-8"?>
<svg version="1.1" xmlns="http://www.w3.org/2000/svg" width="244" height="232">
<path d="M0 0 C45.21 0 90.42 0 137 0 C137 0.66 137 1.32 137 2 C138.98 2 140.96 2 143 2 C143 2.66 143 3.32 143 4 C145.31 4 147.62 4 150 4 C150 4.66 150 5.32 150 6 C150.99 6 151.98 6 153 6 C153 6.66 153 7.32 153 8 C154.65 8 156.3 8 158 8 C158 8.66 158 9.32 158 10 C158.66 10 159.32 10 160 10 C160 10.66 160 11.32 160 12 C160.66 12 161.32 12 162 12 C162 12.66 162 13.32 162 14 C162.33 13.67 162.66 13.34 163 13 C163 12.34 163 11.68 163 11 C162.34 11 161.68 11 161 11 C161 10.34 161 9.68 161 9 C160.34 9 159.68 9 159 9 C159 8.34 159 7.68 159 7 C158.154375 6.731875 157.30875 6.46375 156.4375 6.1875 C152.86145933 4.9521405 149.46139092 3.523012 146 2 C146 1.67 146 1.34 146 1 C156.23 1 166.46 1 177 1 C177 9.58 177 18.16 177 27 C176.34 27 175.68 27 175 27 C174.01 24.03 174.01 24.03 173 21 C172.34 21 171.68 21 171 21 C171.33 22.65 171.66 24.3 172 26 C172.66 26 173.32 26 174 26 C174 27.32 174 28.64 174 30 C174.66 30 175.32 30 176 30 C178.24828052 34.49656104 178.16682272 38.07872966 178 43 C178.66 43 179.32 43 180 43 C180.04675395 60.48090964 180.08200548 77.96179972 180.10362434 95.44275761 C180.11392988 103.55976008 180.12797638 111.67672366 180.15087891 119.79370117 C180.17083493 126.86977825 180.18372169 133.94582715 180.18817699 141.02193159 C180.19078062 144.76746988 180.19688522 148.51292759 180.21146011 152.25844002 C180.22761181 156.44324418 180.22797826 160.6279089 180.22705078 164.81274414 C180.23424133 166.04992691 180.24143188 167.28710968 180.24884033 168.56178284 C180.23475709 174.42969715 180.03661422 179.47198857 178 185 C177.34 185 176.68 185 176 185 C175.896875 185.70125 175.79375 186.4025 175.6875 187.125 C174.90640997 190.39137647 173.57941257 193.0471852 172 196 C171.34 196 170.68 196 170 196 C170.33 196.66 170.66 197.32 171 198 C171.66 198 172.32 198 173 198 C173.99 195.03 173.99 195.03 175 192 C175.66 192 176.32 192 177 192 C177.02887236 195.81248426 177.04675492 199.6249407 177.0625 203.4375 C177.07087891 204.52611328 177.07925781 205.61472656 177.08789062 206.73632812 C177.09111328 207.77080078 177.09433594 208.80527344 177.09765625 209.87109375 C177.10289307 210.82943115 177.10812988 211.78776855 177.11352539 212.77514648 C177 215 177 215 176 216 C174.43827255 216.08685603 172.87270656 216.10702219 171.30859375 216.09765625 C170.36435547 216.09443359 169.42011719 216.09121094 168.44726562 216.08789062 C167.45404297 216.07951172 166.46082031 216.07113281 165.4375 216.0625 C164.44041016 216.05798828 163.44332031 216.05347656 162.41601562 216.04882812 C159.94395151 216.03700007 157.47200482 216.02051849 155 216 C155 215.34 155 214.68 155 214 C156.66666667 213 158.33333333 212 160 211 C161.70680947 209.37446717 163.37660195 207.70884005 165 206 C166 205 167 204 168 203 C167.67 202.67 167.34 202.34 167 202 C163.45749235 205.43263779 163.45749235 205.43263779 160.4375 209.3125 C159.963125 209.869375 159.48875 210.42625 159 211 C157.68 211 156.36 211 155 211 C155 211.66 155 212.32 155 213 C150.5975268 216.65083143 147.67177385 217.45374191 142 217 C142 217.66 142 218.32 142 219 C133.39819679 220.53511251 125.12318356 221.29128769 116.3918457 221.25878906 C114.61355881 221.26404602 114.61355881 221.26404602 112.79934692 221.26940918 C108.92476347 221.27813074 105.05036619 221.27241248 101.17578125 221.265625 C98.46062576 221.26607182 95.74547347 221.26891424 93.03031921 221.27142334 C87.35930401 221.27504406 81.6883412 221.27031242 76.01733398 221.26074219 C69.48535899 221.24984548 62.95350876 221.25339966 56.42153674 221.264395 C50.78208842 221.27350332 45.14267739 221.27473636 39.50322407 221.26951766 C36.14846587 221.26641938 32.79381272 221.26672918 29.43905067 221.27259064 C25.69927252 221.27769323 21.9597313 221.26989376 18.2199707 221.25878906 C17.12620621 221.26283752 16.03244171 221.26688599 14.90553284 221.27105713 C8.37601328 221.23530203 2.34703937 220.54678704 -4 219 C-4 218.34 -4 217.68 -4 217 C-5.98567708 217.06510417 -7.97135417 217.13020833 -9.95703125 217.1953125 C-12 217 -12 217 -15 215 C-15 214.34 -15 213.68 -15 213 C-16.65 212.67 -18.3 212.34 -20 212 C-20.33 211.01 -20.66 210.02 -21 209 C-21.66 209.33 -22.32 209.66 -23 210 C-23 210.66 -23 211.32 -23 212 C-22.34 212 -21.68 212 -21 212 C-21 212.66 -21 213.32 -21 214 C-19.68 214 -18.36 214 -17 214 C-17 214.66 -17 215.32 -17 216 C-24.92 216 -32.84 216 -41 216 C-41 207.42 -41 198.84 -41 190 C-40.34 190 -39.68 190 -39 190 C-38.32845067 191.28913487 -37.66291141 192.58140204 -37 193.875 C-36.62875 194.59429687 -36.2575 195.31359375 -35.875 196.0546875 C-35 198 -35 198 -35 200 C-34.34 200 -33.68 200 -33 200 C-32 201.66666667 -31 203.33333333 -30 205 C-29.34 205 -28.68 205 -28 205 C-28 204.34 -28 203.68 -28 203 C-28.66 203 -29.32 203 -30 203 C-30 202.34 -30 201.68 -30 201 C-30.66 201 -31.32 201 -32 201 C-32.66 199.02 -33.32 197.04 -34 195 C-34.66 195 -35.32 195 -36 195 C-37.85776765 191.86501708 -38.20140476 189.62528568 -38 186 C-38.66 186 -39.32 186 -40 186 C-40 184.02 -40 182.04 -40 180 C-40.66 180 -41.32 180 -42 180 C-42 134.13 -42 88.26 -42 41 C-41.34 41 -40.68 41 -40 41 C-40.0825 40.030625 -40.165 39.06125 -40.25 38.0625 C-40.28994907 33.18871287 -38.16626615 29.26483649 -36 25 C-35.34 25 -34.68 25 -34 25 C-33.7834375 24.071875 -33.7834375 24.071875 -33.5625 23.125 C-33 21 -33 21 -32 19 C-31.34 19 -30.68 19 -30 19 C-30 18.01 -30 17.02 -30 16 C-30.33 16.33 -30.66 16.66 -31 17 C-31.67482422 17.58201172 -31.67482422 17.58201172 -32.36328125 18.17578125 C-34.54997184 20.61297577 -35.76362508 23.24482517 -37.1875 26.1875 C-37.71730469 27.27417969 -38.24710938 28.36085938 -38.79296875 29.48046875 C-39.19128906 30.31191406 -39.58960938 31.14335938 -40 32 C-40.33 32 -40.66 32 -41 32 C-41 21.77 -41 11.54 -41 1 C-35.96454211 0.97700704 -30.92926744 0.95710457 -25.89379883 0.94506836 C-24.18187848 0.94004901 -22.46996239 0.93323215 -20.75805664 0.92456055 C-18.29312078 0.91238979 -15.82824175 0.90674762 -13.36328125 0.90234375 C-12.22080681 0.89460182 -12.22080681 0.89460182 -11.05525208 0.88670349 C-7.24150175 0.88630362 -3.70684229 1.07409039 0 2 C0 1.34 0 0.68 0 0 Z M-16.8125 4.5 C-17.99779297 5.19609375 -17.99779297 5.19609375 -19.20703125 5.90625 C-19.79871094 6.2671875 -20.39039062 6.628125 -21 7 C-21 7.33 -21 7.66 -21 8 C-19.35 8 -17.7 8 -16 8 C-16 7.34 -16 6.68 -16 6 C-15.01 6 -14.02 6 -13 6 C-13 5.34 -13 4.68 -13 4 C-10.69 4 -8.38 4 -6 4 C-6.33 3.34 -6.66 2.68 -7 2 C-11.06534057 1.71116586 -13.33058355 2.42124391 -16.8125 4.5 Z M-23 8 C-23 8.66 -23 9.32 -23 10 C-24.98 10.99 -24.98 10.99 -27 12 C-27 12.99 -27 13.98 -27 15 C-24.95880212 13.38405168 -22.95927063 11.7143618 -21 10 C-21 9.34 -21 8.68 -21 8 C-21.66 8 -22.32 8 -23 8 Z M165 15 C165.33 15.99 165.66 16.98 166 18 C166.66 18 167.32 18 168 18 C168.33 18.66 168.66 19.32 169 20 C169 19.01 169 18.02 169 17 C168.34 17 167.68 17 167 17 C167 16.34 167 15.68 167 15 C166.34 15 165.68 15 165 15 Z M-27 207 C-25.515 207.99 -25.515 207.99 -24 209 C-23.67 208.34 -23.34 207.68 -23 207 C-24.32 207 -25.64 207 -27 207 Z " fill="#F0F0F1" transform="translate(51,5)"/>
<path d="M0 0 C45.21 0 90.42 0 137 0 C137 0.66 137 1.32 137 2 C138.98 2 140.96 2 143 2 C143 2.66 143 3.32 143 4 C145.31 4 147.62 4 150 4 C150 4.66 150 5.32 150 6 C150.99 6 151.98 6 153 6 C153 6.66 153 7.32 153 8 C154.65 8 156.3 8 158 8 C158 8.66 158 9.32 158 10 C158.66 10 159.32 10 160 10 C160 10.66 160 11.32 160 12 C160.66 12 161.32 12 162 12 C162 12.66 162 13.32 162 14 C162.33 13.67 162.66 13.34 163 13 C163 12.34 163 11.68 163 11 C162.34 11 161.68 11 161 11 C161 10.34 161 9.68 161 9 C160.34 9 159.68 9 159 9 C159 8.34 159 7.68 159 7 C158.154375 6.731875 157.30875 6.46375 156.4375 6.1875 C152.86145933 4.9521405 149.46139092 3.523012 146 2 C146 1.67 146 1.34 146 1 C156.23 1 166.46 1 177 1 C177 9.58 177 18.16 177 27 C176.34 27 175.68 27 175 27 C174.01 24.03 174.01 24.03 173 21 C172.34 21 171.68 21 171 21 C171.33 22.65 171.66 24.3 172 26 C172.66 26 173.32 26 174 26 C174 27.32 174 28.64 174 30 C174.66 30 175.32 30 176 30 C178.24828052 34.49656104 178.16682272 38.07872966 178 43 C178.66 43 179.32 43 180 43 C180 84.91 180 126.82 180 170 C179.34 170 178.68 170 178 170 C177.1558062 173.97977076 176.55312735 177.97007218 176 182 C175.34 182 174.68 182 174 182 C173.67 183.98 173.34 185.96 173 188 C172.34 188 171.68 188 171 188 C171 189.32 171 190.64 171 192 C170.34 192 169.68 192 169 192 C169.04125 192.763125 169.0825 193.52625 169.125 194.3125 C169 197 169 197 167 200 C166.34 200 165.68 200 165 200 C165 200.66 165 201.32 165 202 C162.03 202.99 159.06 203.98 156 205 C156 205.66 156 206.32 156 207 C154.68 207 153.36 207 152 207 C152 207.99 152 208.98 152 210 C148.18009548 211.79760213 145.21571713 212.28743526 141 212 C137.1176108 208.1176108 137.76045182 198.52175069 137.625 193.5 C137.6272353 187.30747809 138.4515219 181.4237956 139.75 175.375 C139.90678223 174.62927734 140.06356445 173.88355469 140.22509766 173.11523438 C141.35524566 168.33458913 142.91557267 164.84946246 146 161 C146.66 161 147.32 161 148 161 C148.26039063 160.27941406 148.52078125 159.55882812 148.7890625 158.81640625 C150.04657025 155.89168661 151.53769292 153.53299712 153.375 150.9375 C154.25285156 149.68259766 154.25285156 149.68259766 155.1484375 148.40234375 C157 146 157 146 159.03125 144.06640625 C161.39863956 141.58158666 162.64860274 139.09193143 164.125 136 C164.62257812 134.96875 165.12015625 133.9375 165.6328125 132.875 C166.08398438 131.92625 166.53515625 130.9775 167 130 C167.36738281 129.31292969 167.73476562 128.62585938 168.11328125 127.91796875 C169.12378561 125.73225226 169.59830802 123.67246761 170.0625 121.3125 C170.89591837 117.10408163 170.89591837 117.10408163 172 116 C173.19813146 109.04787918 173.10326303 101.90855511 173.125 94.875 C173.12959229 94.02115723 173.13418457 93.16731445 173.13891602 92.28759766 C173.52526198 88.32803285 173.52526198 88.32803285 172 85 C171.67902249 82.68182911 171.48779044 80.36220643 171.28125 78.03125 C171.20934163 76.00819407 171.20934163 76.00819407 170 75 C169.67902249 72.68182911 169.48779044 70.36220643 169.28125 68.03125 C169.20934163 66.00819407 169.20934163 66.00819407 168 65 C167.72692585 63.50402857 167.48192904 62.00290017 167.25 60.5 C164.85063139 48.18791142 155.4807108 36.88824765 146 29 C143.66872633 27.68424327 141.55312053 26.85104018 139 26 C139 25.01 139 24.02 139 23 C137.7934375 22.62875 137.7934375 22.62875 136.5625 22.25 C133.72729876 21.25519255 130.95887514 20.2179775 128.1875 19.0625 C127.41792969 18.74410156 126.64835938 18.42570312 125.85546875 18.09765625 C124 17 124 17 123 14 C121.7625 14.061875 121.7625 14.061875 120.5 14.125 C116.38008185 13.97786007 112.96852693 13.09476605 109 12 C109 11.34 109 10.68 109 10 C106.69 10 104.38 10 102 10 C102 9.34 102 8.68 102 8 C100.081875 8.0309375 100.081875 8.0309375 98.125 8.0625 C94.25 8.125 94.25 8.125 92 7 C89.69437926 6.90167533 87.38584046 6.86921639 85.078125 6.8671875 C84.38168884 6.86623077 83.68525269 6.86527405 82.9677124 6.86428833 C81.48482168 6.86360653 80.00192799 6.8654608 78.51904297 6.86962891 C76.30038281 6.87488074 74.08193426 6.86973515 71.86328125 6.86328125 C62.86129078 6.85949954 53.97317726 7.21685391 45 8 C45 8.66 45 9.32 45 10 C44.13117188 10.17015625 43.26234375 10.3403125 42.3671875 10.515625 C35.9668618 11.86155479 31.36894744 13.18208182 26 17 C24.38896438 17.52420409 22.76151726 17.9992798 21.125 18.4375 C16.70805151 19.63848297 13.34074837 21.40878341 9.59375 24.01171875 C8 25 8 25 6 25 C6 25.66 6 26.32 6 27 C5.34 27 4.68 27 4 27 C4 27.66 4 28.32 4 29 C3.34 29 2.68 29 2 29 C2 29.66 2 30.32 2 31 C0.5390625 32.33203125 0.5390625 32.33203125 -1.375 33.8125 C-4.45633052 36.37512959 -5.79860113 38.11855749 -7 42 C-7.62814113 43.30036233 -8.27591596 44.59132947 -8.9375 45.875 C-10.79006125 49.52461505 -12.42600655 53.22241571 -14 57 C-14.66 57 -15.32 57 -16 57 C-17.60050205 64.54522396 -18.1212844 71.70050368 -18.02734375 79.38671875 C-18.0147071 81.39648271 -18.00234545 83.40624842 -17.99023438 85.41601562 C-17.9653505 88.56296304 -17.93726445 91.70981849 -17.90405273 94.85668945 C-17.87389448 97.90837193 -17.85609882 100.95993508 -17.83984375 104.01171875 C-17.82638412 104.9534343 -17.8129245 105.89514984 -17.79905701 106.86540222 C-17.79567825 107.74344009 -17.7922995 108.62147797 -17.78881836 109.52612305 C-17.77763222 110.68025948 -17.77763222 110.68025948 -17.76622009 111.85771179 C-18.03049579 114.27945414 -18.79544539 115.89998735 -20 118 C-20.66 118 -21.32 118 -22 118 C-22.10441406 118.58265625 -22.20882813 119.1653125 -22.31640625 119.765625 C-23.10293617 122.33645423 -24.17565891 123.7340058 -25.9375 125.75 C-26.46214844 126.36359375 -26.98679687 126.9771875 -27.52734375 127.609375 C-29 129 -29 129 -31 129 C-31.4021875 129.804375 -31.4021875 129.804375 -31.8125 130.625 C-32.7211773 132.44235461 -33.69135573 134.22907685 -34.6875 136 C-36.18220972 138.77423731 -36.18220972 138.77423731 -35.8359375 141.078125 C-35.16273621 143.152371 -35.16273621 143.152371 -33.15234375 144.046875 C-32.05599609 144.39492188 -32.05599609 144.39492188 -30.9375 144.75 C-29.83728516 145.11351562 -29.83728516 145.11351562 -28.71484375 145.484375 C-28.14894531 145.65453125 -27.58304688 145.8246875 -27 146 C-27 146.99 -27 147.98 -27 149 C-26.34 149 -25.68 149 -25 149 C-25 149.66 -25 150.32 -25 151 C-24.01 151 -23.02 151 -22 151 C-21.34642722 152.22506898 -20.70251767 153.45529516 -20.0625 154.6875 C-19.70285156 155.37199219 -19.34320312 156.05648437 -18.97265625 156.76171875 C-17.2221656 160.78995626 -16.85992031 164.92461133 -16.5703125 169.2734375 C-16.49683594 170.2634375 -16.42335938 171.2534375 -16.34765625 172.2734375 C-16.19981587 174.33282805 -16.05913069 176.39274538 -15.92578125 178.453125 C-15.36714688 185.74377689 -14.48117404 191.13710688 -9.5625 196.8125 C-5.99749729 199.855795 -3.40717643 201.25108625 1.30078125 201.265625 C2.11353516 201.26820313 2.92628906 201.27078125 3.76367188 201.2734375 C4.60478516 201.26570312 5.44589844 201.25796875 6.3125 201.25 C7.14201172 201.25773438 7.97152344 201.26546875 8.82617188 201.2734375 C13.92415622 201.25734284 18.19713345 200.74763992 23 199 C23.474375 198.46375 23.94875 197.9275 24.4375 197.375 C26.76573084 195.32615686 29.08921807 195.65014447 32.06640625 195.78125 C34.52988833 196.05994696 36.05453058 196.42865932 38 198 C39.25 200.625 39.25 200.625 40 203 C40.66 203 41.32 203 42 203 C43.78409802 206.06246747 44.22880021 208.22079273 44.125 211.75 C44.10695313 212.54921875 44.08890625 213.3484375 44.0703125 214.171875 C44.04710938 214.77515625 44.02390625 215.3784375 44 216 C39.33691801 216.02468646 34.67387392 216.04285349 30.01074219 216.05493164 C28.42382139 216.05996588 26.83690523 216.06679369 25.25 216.07543945 C22.97134251 216.08754482 20.69274624 216.09323733 18.4140625 216.09765625 C17.34679428 216.10539818 17.34679428 216.10539818 16.25796509 216.11329651 C11.22774341 216.11387171 11.22774341 216.11387171 9 215 C6.45384991 214.76827173 3.92603775 214.58105471 1.375 214.4375 C0.31539062 214.37272461 0.31539062 214.37272461 -0.765625 214.30664062 C-2.51018537 214.20055249 -4.25506697 214.09977111 -6 214 C-6 213.34 -6 212.68 -6 212 C-6.886875 212.04125 -7.77375 212.0825 -8.6875 212.125 C-11.97277013 212.00102754 -14.05449295 211.38612096 -17 210 C-17 209.34 -17 208.68 -17 208 C-18.32 208 -19.64 208 -21 208 C-21 207.34 -21 206.68 -21 206 C-21.66 206 -22.32 206 -23 206 C-23 205.34 -23 204.68 -23 204 C-23.66 204 -24.32 204 -25 204 C-25 203.34 -25 202.68 -25 202 C-25.66 202 -26.32 202 -27 202 C-27 201.34 -27 200.68 -27 200 C-27.66 200 -28.32 200 -29 200 C-31.74778884 196.41954788 -33.46968862 193.5076467 -34 189 C-34.99 188.67 -35.98 188.34 -37 188 C-37 186.35 -37 184.7 -37 183 C-37.99 183 -38.98 183 -40 183 C-40 182.01 -40 181.02 -40 180 C-40.66 180 -41.32 180 -42 180 C-42 134.13 -42 88.26 -42 41 C-41.34 41 -40.68 41 -40 41 C-40.0825 40.030625 -40.165 39.06125 -40.25 38.0625 C-40.28994907 33.18871287 -38.16626615 29.26483649 -36 25 C-35.34 25 -34.68 25 -34 25 C-33.7834375 24.071875 -33.7834375 24.071875 -33.5625 23.125 C-33 21 -33 21 -32 19 C-31.34 19 -30.68 19 -30 19 C-30 18.01 -30 17.02 -30 16 C-30.33 16.33 -30.66 16.66 -31 17 C-31.67482422 17.58201172 -31.67482422 17.58201172 -32.36328125 18.17578125 C-34.54997184 20.61297577 -35.76362508 23.24482517 -37.1875 26.1875 C-37.71730469 27.27417969 -38.24710938 28.36085938 -38.79296875 29.48046875 C-39.19128906 30.31191406 -39.58960938 31.14335938 -40 32 C-40.33 32 -40.66 32 -41 32 C-41 21.77 -41 11.54 -41 1 C-35.96454211 0.97700704 -30.92926744 0.95710457 -25.89379883 0.94506836 C-24.18187848 0.94004901 -22.46996239 0.93323215 -20.75805664 0.92456055 C-18.29312078 0.91238979 -15.82824175 0.90674762 -13.36328125 0.90234375 C-12.22080681 0.89460182 -12.22080681 0.89460182 -11.05525208 0.88670349 C-7.24150175 0.88630362 -3.70684229 1.07409039 0 2 C0 1.34 0 0.68 0 0 Z M-16.8125 4.5 C-17.99779297 5.19609375 -17.99779297 5.19609375 -19.20703125 5.90625 C-19.79871094 6.2671875 -20.39039062 6.628125 -21 7 C-21 7.33 -21 7.66 -21 8 C-19.35 8 -17.7 8 -16 8 C-16 7.34 -16 6.68 -16 6 C-15.01 6 -14.02 6 -13 6 C-13 5.34 -13 4.68 -13 4 C-10.69 4 -8.38 4 -6 4 C-6.33 3.34 -6.66 2.68 -7 2 C-11.06534057 1.71116586 -13.33058355 2.42124391 -16.8125 4.5 Z M-23 8 C-23 8.66 -23 9.32 -23 10 C-24.98 10.99 -24.98 10.99 -27 12 C-27 12.99 -27 13.98 -27 15 C-24.95880212 13.38405168 -22.95927063 11.7143618 -21 10 C-21 9.34 -21 8.68 -21 8 C-21.66 8 -22.32 8 -23 8 Z M165 15 C165.33 15.99 165.66 16.98 166 18 C166.66 18 167.32 18 168 18 C168.33 18.66 168.66 19.32 169 20 C169 19.01 169 18.02 169 17 C168.34 17 167.68 17 167 17 C167 16.34 167 15.68 167 15 C166.34 15 165.68 15 165 15 Z " fill="#7D8AA6" transform="translate(51,5)"/>
<path d="M0 0 C2.76296088 1.11094052 4.76373146 2.26763771 6.875 4.37890625 C7 7.00390625 7 7.00390625 6.875 9.37890625 C6.235625 9.64703125 5.59625 9.91515625 4.9375 10.19140625 C2.54368314 11.26558377 2.54368314 11.26558377 1.875 14.37890625 C-0.04680284 28.23710138 -0.44199855 42.03669048 -0.38574219 56.01098633 C-0.37485809 59.23342028 -0.3857958 62.45531542 -0.3984375 65.67773438 C-0.3971183 67.7513033 -0.3945609 69.82487189 -0.390625 71.8984375 C-0.39467346 72.84950882 -0.39872192 73.80058014 -0.40289307 74.7804718 C-0.35630194 81.40158511 0.1119791 86.7343749 3.875 92.37890625 C4.125 94.94140625 4.125 94.94140625 3.875 97.37890625 C1.31422235 99.9396839 -0.55382603 99.69341989 -4.0546875 99.83984375 C-7.07007673 99.16849294 -8.19699616 97.75183406 -10.125 95.37890625 C-11.35546875 92.79296875 -11.35546875 92.79296875 -12.3125 90.00390625 C-12.63605469 89.08867187 -12.95960937 88.1734375 -13.29296875 87.23046875 C-14.8213276 81.99243137 -15.27291788 76.88898602 -15.44140625 71.44921875 C-15.48330078 70.16015625 -15.52519531 68.87109375 -15.56835938 67.54296875 C-15.60816028 66.19661716 -15.64787273 64.85026296 -15.6875 63.50390625 C-15.73075183 62.13410292 -15.77436812 60.76431104 -15.81835938 59.39453125 C-15.92415522 56.05608468 -16.02624372 52.71756725 -16.125 49.37890625 C-16.785 49.37890625 -17.445 49.37890625 -18.125 49.37890625 C-18.228125 50.53390625 -18.33125 51.68890625 -18.4375 52.87890625 C-18.7680629 56.58121078 -20.00427735 59.70848094 -21.34301758 63.15820312 C-22.68944148 66.98182842 -23.48328859 70.9167599 -24.3125 74.87890625 C-24.48974609 75.70132813 -24.66699219 76.52375 -24.84960938 77.37109375 C-25.28015326 79.372541 -25.70335661 81.37556504 -26.125 83.37890625 C-26.785 83.37890625 -27.445 83.37890625 -28.125 83.37890625 C-28.351875 83.93578125 -28.57875 84.49265625 -28.8125 85.06640625 C-30.56212275 88.1490749 -32.34582429 90.1681983 -35.125 92.37890625 C-39.10426068 92.54823649 -41.43407292 91.37008056 -44.5 89.00390625 C-45.36625 88.13765625 -46.2325 87.27140625 -47.125 86.37890625 C-47.125 85.38890625 -47.125 84.39890625 -47.125 83.37890625 C-48.115 83.04890625 -49.105 82.71890625 -50.125 82.37890625 C-51.15234375 80.2265625 -51.15234375 80.2265625 -52.0625 77.44140625 C-53.35031696 73.64677002 -54.67726143 69.90359572 -56.1875 66.19140625 C-59.60358738 57.72486811 -62.79394535 49.47444637 -64.125 40.37890625 C-64.785 40.37890625 -65.445 40.37890625 -66.125 40.37890625 C-66.00563254 45.18047199 -65.88132666 49.98187687 -65.75268555 54.78320312 C-65.70970178 56.41240068 -65.66800576 58.04163279 -65.62768555 59.67089844 C-66.45147801 73.94785646 -66.45147801 73.94785646 -63.125 86.37890625 C-62.75413907 92.21996585 -62.75413907 92.21996585 -63.125 94.37890625 C-66.90935205 96.90180762 -68.63964241 96.98709033 -73.125 96.37890625 C-75.76436528 94.78000345 -77.6243195 93.07811682 -79.125 90.37890625 C-80.24390025 84.28489595 -80.28012725 78.24841011 -80.25 72.06640625 C-80.24806641 71.07294189 -80.24613281 70.07947754 -80.24414062 69.0559082 C-80.19498754 60.25955466 -79.86334254 51.48125084 -79.4765625 42.6940918 C-79.23202795 36.7866295 -79.10329033 30.90500803 -79.1640625 24.9921875 C-79.17630859 23.79956299 -79.18855469 22.60693848 -79.20117188 21.37817383 C-79.23310035 19.09001957 -79.27813192 16.80200091 -79.33789062 14.5144043 C-79.35271484 13.49000244 -79.36753906 12.46560059 -79.3828125 11.41015625 C-79.4048877 10.50845703 -79.42696289 9.60675781 -79.44970703 8.67773438 C-79.125 6.37890625 -79.125 6.37890625 -77.79638672 4.62695312 C-74.46672455 2.14064974 -71.19843518 2.18840096 -67.1875 2.12890625 C-65.62708984 2.09023437 -65.62708984 2.09023437 -64.03515625 2.05078125 C-60.6623627 2.43106938 -59.34011578 2.79722284 -57.125 5.37890625 C-56.65625 8.5390625 -56.65625 8.5390625 -56.625 12.44140625 C-56.3639336 20.97544192 -54.72708765 28.88173606 -52.67773438 37.14746094 C-52.12984079 39.35936347 -51.60213913 41.57530139 -51.078125 43.79296875 C-49.10685146 52.073925 -49.10685146 52.073925 -46.375 60.12890625 C-45.125 63.37890625 -45.125 63.37890625 -45.125 67.37890625 C-44.465 67.37890625 -43.805 67.37890625 -43.125 67.37890625 C-43.125 69.02890625 -43.125 70.67890625 -43.125 72.37890625 C-42.465 72.37890625 -41.805 72.37890625 -41.125 72.37890625 C-40.795 73.03890625 -40.465 73.69890625 -40.125 74.37890625 C-39.135 74.70890625 -38.145 75.03890625 -37.125 75.37890625 C-37.00898437 74.858125 -36.89296875 74.33734375 -36.7734375 73.80078125 C-35.93657673 70.67515669 -34.84667988 67.67302374 -33.75 64.62890625 C-33.11964844 62.87320313 -33.11964844 62.87320313 -32.4765625 61.08203125 C-31.79463703 59.2136343 -31.11079982 57.34465245 -30.34912109 55.50732422 C-28.14524338 50.0913392 -27.24712759 44.78565496 -26.5 39.00390625 C-26.26075798 37.22486183 -26.01870965 35.44619184 -25.7734375 33.66796875 C-25.67208496 32.89146973 -25.57073242 32.1149707 -25.46630859 31.31494141 C-25.125 29.37890625 -25.125 29.37890625 -24.125 27.37890625 C-23.99446327 25.92269646 -23.89516965 24.46361599 -23.8125 23.00390625 C-23.07637112 15.42287753 -21.56958005 7.1984863 -16 1.62890625 C-11.13598671 -1.90950685 -5.59693558 -1.63586904 0 0 Z " fill="#0B1A7F" transform="translate(118.125,71.62109375)"/>
<path d="M0 0 C2.97094126 1.86051519 4.51077372 4.05468231 5.828125 7.23828125 C6.488125 7.56828125 7.148125 7.89828125 7.828125 8.23828125 C8.453125 11.30078125 8.453125 11.30078125 8.828125 14.23828125 C9.488125 14.23828125 10.148125 14.23828125 10.828125 14.23828125 C12.67345214 19.70887706 13.08121568 24.42648053 12.953125 30.17578125 C12.94410156 30.95501953 12.93507812 31.73425781 12.92578125 32.53710938 C12.90246191 34.43763572 12.86660086 36.33800133 12.828125 38.23828125 C12.168125 38.23828125 11.508125 38.23828125 10.828125 38.23828125 C10.828125 40.21828125 10.828125 42.19828125 10.828125 44.23828125 C10.168125 44.23828125 9.508125 44.23828125 8.828125 44.23828125 C8.725 45.14578125 8.621875 46.05328125 8.515625 46.98828125 C7.80605158 50.34262831 7.37192577 51.95763229 4.828125 54.23828125 C1.765625 54.61328125 1.765625 54.61328125 -1.171875 54.23828125 C-3.171875 52.23828125 -3.171875 52.23828125 -3.484375 49.92578125 C-3.171875 47.23828125 -3.171875 47.23828125 -1.66796875 45.12109375 C0.39286311 41.15009136 0.19442817 37.82712927 0.078125 33.42578125 C0.07039063 32.27239258 0.07039063 32.27239258 0.0625 31.09570312 C-0.00528553 26.07533766 -0.46913198 21.20848792 -1.171875 16.23828125 C-1.831875 16.23828125 -2.491875 16.23828125 -3.171875 16.23828125 C-3.7596875 15.00078125 -3.7596875 15.00078125 -4.359375 13.73828125 C-4.9575 12.91328125 -5.555625 12.08828125 -6.171875 11.23828125 C-10.16773628 10.73702528 -12.37546843 10.72393534 -15.796875 12.93359375 C-22.43323181 19.72276141 -26.42714813 26.6328493 -30.171875 35.23828125 C-30.831875 35.23828125 -31.491875 35.23828125 -32.171875 35.23828125 C-32.19678926 39.50666931 -32.21483547 43.77501764 -32.22680664 48.04345703 C-32.23180285 49.49235777 -32.23860209 50.94125356 -32.24731445 52.39013672 C-32.70353192 68.55661556 -32.70353192 68.55661556 -25.296875 82.48828125 C-19.52707647 87.23988004 -12.28596174 86.83191971 -5.171875 86.23828125 C0.89332981 85.00960256 4.34687177 81.06093481 7.828125 76.23828125 C8.86169647 74.59222299 9.86872832 72.92864683 10.828125 71.23828125 C12.140625 68.92578125 12.140625 68.92578125 13.828125 67.23828125 C16.953125 66.92578125 16.953125 66.92578125 19.828125 67.23828125 C21.35936185 68.7695181 21.07119607 70.17040949 21.140625 72.30078125 C21.11559748 77.50650497 19.42002508 80.78345299 16.828125 85.23828125 C16.168125 85.23828125 15.508125 85.23828125 14.828125 85.23828125 C14.725 85.87765625 14.621875 86.51703125 14.515625 87.17578125 C14.28875 87.85640625 14.061875 88.53703125 13.828125 89.23828125 C12.838125 89.56828125 11.848125 89.89828125 10.828125 90.23828125 C9.8690625 91.41390625 9.8690625 91.41390625 8.890625 92.61328125 C3.81787848 97.86882945 -4.92596247 98.39475509 -11.859375 98.55078125 C-18.14796113 98.3508551 -25.56701946 98.0433479 -30.171875 93.23828125 C-30.171875 92.57828125 -30.171875 91.91828125 -30.171875 91.23828125 C-30.76742187 90.97917969 -31.36296875 90.72007812 -31.9765625 90.453125 C-34.33258924 89.14934508 -35.59669243 87.87037521 -37.296875 85.80078125 C-38.04324219 84.90552734 -38.04324219 84.90552734 -38.8046875 83.9921875 C-45.56028083 75.32572634 -45.45564107 63.9762044 -45.484375 53.42578125 C-45.48969238 52.45995117 -45.49500977 51.49412109 -45.50048828 50.49902344 C-45.41341854 41.60568976 -43.9200615 34.17475338 -40.046875 26.17578125 C-39.50804687 25.05042969 -38.96921875 23.92507812 -38.4140625 22.765625 C-38.00414062 21.93160156 -37.59421875 21.09757812 -37.171875 20.23828125 C-36.511875 20.23828125 -35.851875 20.23828125 -35.171875 20.23828125 C-35.171875 18.91828125 -35.171875 17.59828125 -35.171875 16.23828125 C-34.511875 16.23828125 -33.851875 16.23828125 -33.171875 16.23828125 C-33.171875 15.24828125 -33.171875 14.25828125 -33.171875 13.23828125 C-32.181875 13.23828125 -31.191875 13.23828125 -30.171875 13.23828125 C-29.965625 12.35140625 -29.759375 11.46453125 -29.546875 10.55078125 C-24.97248223 -0.46934678 -10.56625623 -3.7057913 0 0 Z " fill="#101E80" transform="translate(182.171875,72.76171875)"/>
<path d="M0 0 C0.66 0.33 1.32 0.66 2 1 C2.02570756 7.52464947 2.04301396 14.04928553 2.05493164 20.57397461 C2.05990874 22.78589364 2.06669282 24.99780946 2.07543945 27.2097168 C2.21514845 63.49296384 2.21514845 63.49296384 -1 72 C-1.66 72 -2.32 72 -3 72 C-3 73.32 -3 74.64 -3 76 C-3.66 76 -4.32 76 -5 76 C-4.95875 76.763125 -4.9175 77.52625 -4.875 78.3125 C-5 81 -5 81 -7 84 C-7.66 84 -8.32 84 -9 84 C-9 84.66 -9 85.32 -9 86 C-11.97 86.99 -14.94 87.98 -18 89 C-18 89.66 -18 90.32 -18 91 C-19.32 91 -20.64 91 -22 91 C-22 91.99 -22 92.98 -22 94 C-25.81990452 95.79760213 -28.78428287 96.28743526 -33 96 C-36.8823892 92.1176108 -36.23954818 82.52175069 -36.375 77.5 C-36.3727647 71.30747809 -35.5484781 65.4237956 -34.25 59.375 C-34.09321777 58.62927734 -33.93643555 57.88355469 -33.77490234 57.11523438 C-32.64475434 52.33458913 -31.08442733 48.84946246 -28 45 C-27.34 45 -26.68 45 -26 45 C-25.60941406 43.91912109 -25.60941406 43.91912109 -25.2109375 42.81640625 C-23.95342975 39.89168661 -22.46230708 37.53299712 -20.625 34.9375 C-19.74714844 33.68259766 -19.74714844 33.68259766 -18.8515625 32.40234375 C-17 30 -17 30 -14.94921875 28.02734375 C-12.72092846 25.70974323 -11.566019 23.52505439 -10.1875 20.625 C-9.68347656 19.58085937 -9.17945313 18.53671875 -8.66015625 17.4609375 C-8.11230469 16.31882813 -7.56445312 15.17671875 -7 14 C-5.71777535 11.41191522 -4.42143906 8.83098721 -3.125 6.25 C-2.5231876 5.04699998 -1.92160314 3.84388589 -1.3203125 2.640625 C-0.88460937 1.76921875 -0.44890625 0.8978125 0 0 Z " fill="#7B88A5" transform="translate(225,121)"/>
<path d="M0 0 C5.01632918 0 7.52247755 0.29427716 12 2 C12 2.66 12 3.32 12 4 C12.66 4 13.32 4 14 4 C14 4.66 14 5.32 14 6 C14.99 6 15.98 6 17 6 C17.65357278 7.22506898 18.29748233 8.45529516 18.9375 9.6875 C19.29714844 10.37199219 19.65679688 11.05648437 20.02734375 11.76171875 C21.7778344 15.78995626 22.14007969 19.92461133 22.4296875 24.2734375 C22.50316406 25.2634375 22.57664062 26.2534375 22.65234375 27.2734375 C22.80018413 29.33282805 22.94086931 31.39274538 23.07421875 33.453125 C23.63285312 40.74377689 24.51882596 46.13710688 29.4375 51.8125 C33.00250271 54.855795 35.59282357 56.25108625 40.30078125 56.265625 C41.51991211 56.26949219 41.51991211 56.26949219 42.76367188 56.2734375 C43.60478516 56.26570313 44.44589844 56.25796875 45.3125 56.25 C46.14201172 56.25773437 46.97152344 56.26546875 47.82617188 56.2734375 C52.92415622 56.25734284 57.19713345 55.74763992 62 54 C62.7115625 53.195625 62.7115625 53.195625 63.4375 52.375 C65.76573084 50.32615686 68.08921807 50.65014447 71.06640625 50.78125 C73.52988833 51.05994696 75.05453058 51.42865932 77 53 C78.25 55.625 78.25 55.625 79 58 C79.66 58 80.32 58 81 58 C82.78409802 61.06246747 83.22880021 63.22079273 83.125 66.75 C83.10695313 67.54921875 83.08890625 68.3484375 83.0703125 69.171875 C83.04710938 69.77515625 83.02390625 70.3784375 83 71 C78.33691801 71.02468646 73.67387392 71.04285349 69.01074219 71.05493164 C67.42382139 71.05996588 65.83690523 71.06679369 64.25 71.07543945 C61.97134251 71.08754482 59.69274624 71.09323733 57.4140625 71.09765625 C56.34679428 71.10539818 56.34679428 71.10539818 55.25796509 71.11329651 C50.22774341 71.11387171 50.22774341 71.11387171 48 70 C45.45384991 69.76827173 42.92603775 69.58105471 40.375 69.4375 C39.31539062 69.37272461 39.31539062 69.37272461 38.234375 69.30664062 C36.48981463 69.20055249 34.74493303 69.09977111 33 69 C33 68.34 33 67.68 33 67 C32.113125 67.04125 31.22625 67.0825 30.3125 67.125 C27.02722987 67.00102754 24.94550705 66.38612096 22 65 C22 64.34 22 63.68 22 63 C20.68 63 19.36 63 18 63 C18 62.34 18 61.68 18 61 C17.34 61 16.68 61 16 61 C16 60.34 16 59.68 16 59 C15.34 59 14.68 59 14 59 C14 58.34 14 57.68 14 57 C13.34 57 12.68 57 12 57 C12 56.34 12 55.68 12 55 C11.34 55 10.68 55 10 55 C7.25221116 51.41954788 5.53031138 48.5076467 5 44 C4.01 43.67 3.02 43.34 2 43 C2 41.35 2 39.7 2 38 C1.01 38 0.02 38 -1 38 C-0.67 25.46 -0.34 12.92 0 0 Z " fill="#7D8BA7" transform="translate(12,150)"/>
<path d="M0 0 C3 2 3 2 3.4765625 4.12890625 C3.55003906 5.33353516 3.55003906 5.33353516 3.625 6.5625 C3.60362942 9.58076447 3.60362942 9.58076447 5 12 C5.144375 13.134375 5.28875 14.26875 5.4375 15.4375 C5.64847551 19.04058997 5.64847551 19.04058997 8 21 C8.39477539 23.03125 8.39477539 23.03125 8.59765625 25.5 C8.67693359 26.386875 8.75621094 27.27375 8.83789062 28.1875 C8.94907227 29.5796875 8.94907227 29.5796875 9.0625 31 C9.21657575 32.83362876 9.37396796 34.66698279 9.53515625 36.5 C9.600979 37.3146875 9.66680176 38.129375 9.73461914 38.96875 C9.89559261 41.06416327 9.89559261 41.06416327 11 43 C11.15617636 44.9966804 11.25052291 46.99830496 11.31640625 49 C11.35838135 50.26457031 11.40035645 51.52914062 11.44360352 52.83203125 C11.48369086 54.22134111 11.52331145 55.6106645 11.5625 57 C11.59426834 58.04679932 11.59426834 58.04679932 11.62667847 59.11474609 C12.12606727 75.7418172 12.10100202 92.36729744 12 109 C11.34 109 10.68 109 10 109 C9.1558062 112.97977076 8.55312735 116.97007218 8 121 C7.67 121 7.34 121 7 121 C7 99.55 7 78.1 7 56 C5.68 58.31 4.36 60.62 3 63 C2.375 61.25 2.375 61.25 2 59 C2.4640625 58.08154297 2.4640625 58.08154297 2.9375 57.14453125 C6.26195799 50.43450392 5.09617569 41.2217669 5.125 33.875 C5.12967285 33.02091553 5.1343457 32.16683105 5.13916016 31.28686523 C5.52518876 27.327671 5.52518876 27.327671 4 24 C3.67902249 21.68182911 3.48779044 19.36220643 3.28125 17.03125 C3.20934163 15.00819407 3.20934163 15.00819407 2 14 C1.79011244 12.58908915 1.63168764 11.17034524 1.5 9.75 C1.16813426 6.44714576 0.7322392 3.24277362 0 0 Z " fill="#AAB2C0" transform="translate(219,66)"/>
<path d="M0 0 C0.33 0.99 0.66 1.98 1 3 C1.66 3 2.32 3 3 3 C3 4.32 3 5.64 3 7 C3.66 7 4.32 7 5 7 C7.24828052 11.49656104 7.16682272 15.07872966 7 20 C7.66 20 8.32 20 9 20 C9 50.69 9 81.38 9 113 C8.67 113 8.34 113 8 113 C7.97494385 112.04109863 7.9498877 111.08219727 7.92407227 110.09423828 C7.8300138 106.54201523 7.72978942 102.98998844 7.62768555 99.43798828 C7.58433074 97.89962347 7.54265605 96.36121037 7.50268555 94.82275391 C7.44499602 92.6134586 7.38129821 90.40440652 7.31640625 88.1953125 C7.29969376 87.50567413 7.28298126 86.81603577 7.26576233 86.10549927 C7.19193005 82.42885736 7.19193005 82.42885736 6 79 C5.80464387 77.50472583 5.65659804 76.00308375 5.53515625 74.5 C5.45716797 73.613125 5.37917969 72.72625 5.29882812 71.8125 C5.14130309 69.93782192 4.98765528 68.062814 4.83789062 66.1875 C4.75861328 65.300625 4.67933594 64.41375 4.59765625 63.5 C4.53070557 62.6853125 4.46375488 61.870625 4.39477539 61.03125 C4.15392913 58.78111823 4.15392913 58.78111823 2 57 C1.60539977 54.67624308 1.27769908 52.3406065 1 50 C0.68033861 48.33065717 0.35268934 46.6626783 0 45 C0.66 45.33 1.32 45.66 2 46 C2.33 46.99 2.66 47.98 3 49 C3.0251057 45.08969115 3.04304746 41.17941485 3.05493164 37.26904297 C3.06231093 35.3004389 3.07503058 33.33185714 3.08789062 31.36328125 C3.10779903 23.5193686 2.80895594 15.80318717 2 8 C1.34 8 0.68 8 0 8 C-0.38063221 5.6739143 -0.71269945 3.33944736 -1 1 C-0.67 0.67 -0.34 0.34 0 0 Z " fill="#999DAA" transform="translate(222,28)"/>
<path d="M0 0 C11.88 0 23.76 0 36 0 C35.67 0.99 35.34 1.98 35 3 C34.505 2.505 34.505 2.505 34 2 C28.21972792 2.34681632 24.81650987 4.07231753 20 7 C19.34 7 18.68 7 18 7 C18 7.66 18 8.32 18 9 C12.52380952 14 12.52380952 14 10 14 C9.731875 14.54398438 9.46375 15.08796875 9.1875 15.6484375 C7.83295583 18.33079142 6.42593549 20.97988967 5 23.625 C4.484375 24.58664063 3.96875 25.54828125 3.4375 26.5390625 C2 29 2 29 0 31 C0 20.77 0 10.54 0 0 Z " fill="#FCFCFE" transform="translate(10,6)"/>
<path d="M0 0 C10.23 0 20.46 0 31 0 C31 8.58 31 17.16 31 26 C30.34 26 29.68 26 29 26 C28.34 24.02 27.68 22.04 27 20 C26.4225 20.20625 25.845 20.4125 25.25 20.625 C22.48032433 21.08661261 21.35438733 20.42944945 19 19 C19.33 17.68 19.66 16.36 20 15 C20 15.66 20 16.32 20 17 C20.33 16.67 20.66 16.34 21 16 C21 15.34 21 14.68 21 14 C20.34 14 19.68 14 19 14 C19 13.34 19 12.68 19 12 C18.34 12 17.68 12 17 12 C17 11.34 17 10.68 17 10 C16.34 10 15.68 10 15 10 C15 9.34 15 8.68 15 8 C14.34 8 13.68 8 13 8 C13 7.34 13 6.68 13 6 C11.7315625 5.5978125 11.7315625 5.5978125 10.4375 5.1875 C6.86145933 3.9521405 3.46139092 2.523012 0 1 C0 0.67 0 0.34 0 0 Z " fill="#FBFBFC" transform="translate(197,6)"/>
<path d="M0 0 C0.66 0 1.32 0 2 0 C2.67154933 1.28913487 3.33708859 2.58140204 4 3.875 C4.37125 4.59429687 4.7425 5.31359375 5.125 6.0546875 C6 8 6 8 6 10 C6.66 10 7.32 10 8 10 C8.4125 10.825 8.825 11.65 9.25 12.5 C9.8275 13.325 10.405 14.15 11 15 C14.12635209 15.41746608 14.12635209 15.41746608 17 15 C17 16.32 17 17.64 17 19 C17.33 19.99 17.66 20.98 18 22 C18.66 22 19.32 22 20 22 C20 22.66 20 23.32 20 24 C21.32 24 22.64 24 24 24 C24 24.66 24 25.32 24 26 C16.08 26 8.16 26 0 26 C0 17.42 0 8.84 0 0 Z " fill="#FFFFFF" transform="translate(10,195)"/>
<path d="M0 0 C0.66 0 1.32 0 2 0 C2.02887236 3.81248426 2.04675492 7.6249407 2.0625 11.4375 C2.07087891 12.52611328 2.07925781 13.61472656 2.08789062 14.73632812 C2.09272461 16.28803711 2.09272461 16.28803711 2.09765625 17.87109375 C2.10551147 19.30859985 2.10551147 19.30859985 2.11352539 20.77514648 C2 23 2 23 1 24 C-0.56172745 24.08685603 -2.12729344 24.10702219 -3.69140625 24.09765625 C-4.63564453 24.09443359 -5.57988281 24.09121094 -6.55273438 24.08789062 C-8.04256836 24.07532227 -8.04256836 24.07532227 -9.5625 24.0625 C-10.55958984 24.05798828 -11.55667969 24.05347656 -12.58398438 24.04882812 C-15.05604849 24.03700007 -17.52799518 24.02051849 -20 24 C-20 23.34 -20 22.68 -20 22 C-18.33333333 21 -16.66666667 20 -15 19 C-13.29319053 17.37446717 -11.62339805 15.70884005 -10 14 C-9.4225 13.505 -8.845 13.01 -8.25 12.5 C-6.55604291 10.4672515 -6.34892641 8.58205543 -6 6 C-4.68 6 -3.36 6 -2 6 C-1.34 4.02 -0.68 2.04 0 0 Z " fill="#FFFFFF" transform="translate(226,197)"/>
<path d="M0 0 C0.66 0 1.32 0 2 0 C2.19392201 5.52677733 1.7479503 9.75614911 0 15 C-0.66 15 -1.32 15 -2 15 C-2.103125 15.70125 -2.20625 16.4025 -2.3125 17.125 C-3.09359003 20.39137647 -4.42058743 23.0471852 -6 26 C-6.66 26 -7.32 26 -8 26 C-8.226875 26.721875 -8.45375 27.44375 -8.6875 28.1875 C-10.26405086 31.56582327 -12.30986575 33.43796738 -15 36 C-15.680625 36.928125 -16.36125 37.85625 -17.0625 38.8125 C-17.701875 39.534375 -18.34125 40.25625 -19 41 C-20.32 41 -21.64 41 -23 41 C-23 41.66 -23 42.32 -23 43 C-27.0909066 46.31168629 -29.73628638 47.50130606 -35 47 C-35.495 45.515 -35.495 45.515 -36 44 C-36.99 44 -37.98 44 -39 44 C-40.10228696 39.59085217 -40.07654536 35.51617599 -40 31 C-37.70366176 34.44450737 -37.45983515 36.93812283 -37 41 C-33.16774573 41.08912219 -29.73437848 40.87867729 -26 40 C-26 39.01 -26 38.02 -26 37 C-24.68 37 -23.36 37 -22 37 C-22 36.34 -22 35.68 -22 35 C-18.63316085 32.56839395 -17.26649636 32 -13 32 C-13 31.34 -13 30.68 -13 30 C-12.34 30 -11.68 30 -11 30 C-10.34 27.36 -9.68 24.72 -9 22 C-8.34 22 -7.68 22 -7 22 C-7 20.68 -7 19.36 -7 18 C-6.34 18 -5.68 18 -5 18 C-4.67 16.02 -4.34 14.04 -4 12 C-3.34 12 -2.68 12 -2 12 C-2.04125 10.948125 -2.0825 9.89625 -2.125 8.8125 C-2.00852125 5.25989827 -1.52791932 3.15133359 0 0 Z " fill="#F8F9F9" transform="translate(229,175)"/>
<path d="M0 0 C0.33 0 0.66 0 1 0 C0.67 32.34 0.34 64.68 0 98 C-0.66 98 -1.32 98 -2 98 C-2 66.32 -2 34.64 -2 2 C-1.34 2 -0.68 2 0 2 C0 1.34 0 0.68 0 0 Z " fill="#95A2B5" transform="translate(11,44)"/>
<path d="M0 0 C0.78773804 0.00141495 1.57547607 0.0028299 2.38708496 0.00428772 C4.87268064 0.00983013 7.35818211 0.0223714 9.84375 0.03515625 C11.54166535 0.04017871 13.23958214 0.0447403 14.9375 0.04882812 C19.07295229 0.05978061 23.20833524 0.07700459 27.34375 0.09765625 C27.34375 0.75765625 27.34375 1.41765625 27.34375 2.09765625 C28.33375 2.01515625 29.32375 1.93265625 30.34375 1.84765625 C34.25957933 1.83984022 36.6553925 3.14097607 40.015625 5.01953125 C43.80290802 6.77337372 47.82681166 7.46783513 51.90234375 8.2890625 C52.70800781 8.55589844 53.51367188 8.82273437 54.34375 9.09765625 C54.83875 10.58265625 54.83875 10.58265625 55.34375 12.09765625 C58.35222418 13.32285889 58.35222418 13.32285889 61.34375 14.09765625 C59.65625 14.78515625 59.65625 14.78515625 57.34375 15.09765625 C54.59375 13.78515625 54.59375 13.78515625 52.34375 12.09765625 C52.34375 11.43765625 52.34375 10.77765625 52.34375 10.09765625 C51.10625 10.15953125 51.10625 10.15953125 49.84375 10.22265625 C45.72383185 10.07551632 42.31227693 9.1924223 38.34375 8.09765625 C38.34375 7.43765625 38.34375 6.77765625 38.34375 6.09765625 C36.03375 6.09765625 33.72375 6.09765625 31.34375 6.09765625 C31.34375 5.43765625 31.34375 4.77765625 31.34375 4.09765625 C29.425625 4.12859375 29.425625 4.12859375 27.46875 4.16015625 C23.59375 4.22265625 23.59375 4.22265625 21.34375 3.09765625 C18.28132679 3.0105385 15.24188535 2.98217165 12.1796875 3 C11.27247955 3.00141495 10.36527161 3.0028299 9.43057251 3.00428772 C6.52659845 3.00989529 3.62270085 3.02244907 0.71875 3.03515625 C-1.24739472 3.04017027 -3.21354065 3.04473335 -5.1796875 3.04882812 C-10.0052379 3.05986719 -14.83073097 3.0771369 -19.65625 3.09765625 C-13.97771353 -0.68803473 -6.64588635 -0.0459701 0 0 Z " fill="#A5AEC2" transform="translate(121.65625,8.90234375)"/>
<path d="M0 0 C0.33 0.66 0.66 1.32 1 2 C0.34 2 -0.32 2 -1 2 C-1.02505615 2.7113208 -1.0501123 3.4226416 -1.07592773 4.15551758 C-1.19188439 7.37469517 -1.31461245 10.59357985 -1.4375 13.8125 C-1.49647461 15.49182617 -1.49647461 15.49182617 -1.55664062 17.20507812 C-1.59853516 18.27822266 -1.64042969 19.35136719 -1.68359375 20.45703125 C-1.72025146 21.44678955 -1.75690918 22.43654785 -1.79467773 23.45629883 C-2 26 -2 26 -3 29 C-3.08754798 30.67220971 -3.11765995 32.34772199 -3.11352539 34.0222168 C-3.11344986 35.04304855 -3.11337433 36.06388031 -3.11329651 37.11564636 C-3.10813522 38.21572525 -3.10297394 39.31580414 -3.09765625 40.44921875 C-3.0962413 41.5769722 -3.09482635 42.70472565 -3.09336853 43.86665344 C-3.0877647 47.47362912 -3.07521153 51.08054304 -3.0625 54.6875 C-3.05748549 57.13085848 -3.0529225 59.57421793 -3.04882812 62.01757812 C-3.03779403 68.01173987 -3.02105215 74.00586552 -3 80 C-3.66 79.67 -4.32 79.34 -5 79 C-6.36547049 73.6368529 -6.16157072 68.11491576 -6.16796875 62.6171875 C-6.17129715 61.6077005 -6.17462555 60.5982135 -6.17805481 59.55813599 C-6.18311024 57.41815646 -6.18546356 55.27816908 -6.18530273 53.13818359 C-6.18745998 49.93442908 -6.20554862 46.73103606 -6.22460938 43.52734375 C-6.25255469 33.54148536 -6.07249383 23.64038908 -5.11328125 13.6953125 C-5.03554977 12.87086639 -4.9578183 12.04642029 -4.87773132 11.19699097 C-4.09428397 4.01425743 -4.09428397 4.01425743 -2 1 C-1.34 0.67 -0.68 0.34 0 0 Z " fill="#B0B5D1" transform="translate(123,81)"/>
<path d="M0 0 C1.32 0 2.64 0 4 0 C4.73762479 2.44399681 5.47197837 4.88882532 6.19921875 7.3359375 C6.83784263 9.46053012 7.50746071 11.57579906 8.1875 13.6875 C9.05828942 17.23764147 9.14862906 20.35858798 9 24 C10.32 24.66 11.64 25.32 13 26 C13 27.98 13 29.96 13 32 C13.66 32 14.32 32 15 32 C15 33.32 15 34.64 15 36 C15.66 36 16.32 36 17 36 C17 37.98 17 39.96 17 42 C17.66 42 18.32 42 19 42 C19 43.65 19 45.3 19 47 C19.66 47 20.32 47 21 47 C21.33 48.65 21.66 50.3 22 52 C21.34 51.67 20.68 51.34 20 51 C20 50.01 20 49.02 20 48 C18.515 47.505 18.515 47.505 17 47 C15.97265625 44.84765625 15.97265625 44.84765625 15.0625 42.0625 C13.77468304 38.26786377 12.44773857 34.52468947 10.9375 30.8125 C7.52141262 22.34596186 4.33105465 14.09554012 3 5 C2.34 5 1.68 5 1 5 C1.33 18.53 1.66 32.06 2 46 C0 44 0 44 -0.24050903 42.08908081 C-0.23606781 41.31186676 -0.23162659 40.53465271 -0.22705078 39.73388672 C-0.22689972 38.85312469 -0.22674866 37.97236267 -0.22659302 37.06491089 C-0.21627045 36.11278717 -0.20594788 35.16066345 -0.1953125 34.1796875 C-0.1924826 33.20589142 -0.18965271 32.23209534 -0.18673706 31.22879028 C-0.17551913 28.11073651 -0.1504117 24.99296732 -0.125 21.875 C-0.11497228 19.76432706 -0.10584607 17.65364962 -0.09765625 15.54296875 C-0.07557458 10.36188165 -0.04208129 5.18096115 0 0 Z " fill="#2D388A" transform="translate(51,107)"/>
<path d="M0 0 C0.33 0 0.66 0 1 0 C2.29283525 10.86784985 2.18613215 21.77139037 2.18530273 32.69897461 C2.18749247 35.92640313 2.20571004 39.15349089 2.22460938 42.38085938 C2.25194131 52.7654937 2.19933954 62.80328872 0 73 C-0.33 73 -0.66 73 -1 73 C-1 51.55 -1 30.1 -1 8 C-2.32 10.31 -3.64 12.62 -5 15 C-6.04537095 12.29840881 -6.08156212 11.21584123 -5.0390625 8.45703125 C-4.57242188 7.58433594 -4.10578125 6.71164063 -3.625 5.8125 C-3.16351563 4.93207031 -2.70203125 4.05164063 -2.2265625 3.14453125 C-1 1 -1 1 0 0 Z " fill="#939DB2" transform="translate(227,114)"/>
<path d="M0 0 C1.33332095 2.6666419 0.67102033 4.16680303 0 7 C-0.66 7 -1.32 7 -2 7 C-2.144375 8.258125 -2.28875 9.51625 -2.4375 10.8125 C-2.73748686 13.42667123 -3.15813297 15.47439892 -4 18 C-4.20614666 22.34155266 -4.18579878 26.68563848 -4.18530273 31.03149414 C-4.1874745 33.16247982 -4.20559897 35.29293501 -4.22460938 37.42382812 C-4.25191435 44.23476929 -4.13703854 50.48752287 -2 57 C-5.14889975 54.9007335 -5.74629714 54.40290778 -7 51 C-7.84936784 45.40023918 -8.15950734 39.97047207 -8.125 34.3125 C-8.12306641 33.53664551 -8.12113281 32.76079102 -8.11914062 31.96142578 C-8.0695716 25.27373851 -7.65863963 18.65696482 -7 12 C-6.34 12 -5.68 12 -5 12 C-4.80664062 11.38511719 -4.61328125 10.77023438 -4.4140625 10.13671875 C-4.02347656 8.92435547 -4.02347656 8.92435547 -3.625 7.6875 C-3.36976563 6.88699219 -3.11453125 6.08648437 -2.8515625 5.26171875 C-2 3 -2 3 0 0 Z " fill="#CBCFE1" transform="translate(157,96)"/>
<path d="M0 0 C0 0.99 0 1.98 0 3 C0.15919008 5.09512718 0.15919008 5.09512718 1 7 C2.84727567 8.13070444 2.84727567 8.13070444 5.0625 8.75 C5.79597656 8.99234375 6.52945312 9.2346875 7.28515625 9.484375 C7.85105469 9.65453125 8.41695312 9.8246875 9 10 C5 11 5 11 -3 9 C-3 20.55 -3 32.1 -3 44 C-3.99 44 -4.98 44 -6 44 C-6.09954745 39.30442353 -6.17178467 34.60947337 -6.21972656 29.91308594 C-6.23973053 28.31857592 -6.26694301 26.72413822 -6.30175781 25.12988281 C-6.65165736 8.68460391 -6.65165736 8.68460391 -2 2 C-1.34 1.34 -0.68 0.68 0 0 Z " fill="#A0A8BA" transform="translate(15,141)"/>
<path d="M0 0 C0.33 0 0.66 0 1 0 C0.99555878 0.90931274 0.99111755 1.81862549 0.98654175 2.75549316 C0.94637909 11.34721798 0.91597199 19.93891101 0.89637566 28.53070831 C0.88596215 32.94727094 0.8718476 37.36375565 0.84912109 41.78027344 C0.82730567 46.04669454 0.81541309 50.31304095 0.81024551 54.57951355 C0.80656533 56.20290807 0.799379 57.82629875 0.78853989 59.44966125 C0.77390908 61.73280505 0.77202685 64.0156446 0.77294922 66.29882812 C0.768508 67.59566528 0.76406677 68.89250244 0.75949097 70.2286377 C1.02650346 74.41559419 1.87054397 77.96860104 3 82 C1.0625 81 1.0625 81 -1 79 C-2.09619554 72.86794076 -2.15564168 66.80556997 -2.125 60.58984375 C-2.12234131 59.5948436 -2.11968262 58.59984344 -2.11694336 57.57469177 C-2.04504417 45.8924948 -1.53148581 34.23111034 -1 22.5625 C-0.90318838 20.35483772 -0.80683238 18.14715541 -0.7109375 15.93945312 C-0.47917778 10.62606111 -0.2419193 5.31293867 0 0 Z " fill="#757EB0" transform="translate(40,83)"/>
<path d="M0 0 C0.66 0.33 1.32 0.66 2 1 C1.525625 1.78375 1.05125 2.5675 0.5625 3.375 C-0.33898023 4.88948678 -1.21179485 6.4235897 -2 8 C-2.99 8 -3.98 8 -5 8 C-5 8.99 -5 9.98 -5 11 C-5.66 11 -6.32 11 -7 11 C-7 12.32 -7 13.64 -7 15 C-7.66 15 -8.32 15 -9 15 C-9.1134375 15.55042969 -9.226875 16.10085937 -9.34375 16.66796875 C-10.37641027 20.33760079 -12.16827157 23.63650689 -13.84375 27.05078125 C-16.52991547 33.90231817 -16.18283625 41.18537648 -16.1875 48.4375 C-16.19974609 49.43587891 -16.21199219 50.43425781 -16.22460938 51.46289062 C-16.23352085 55.98101074 -16.1292879 60.10096137 -14.92578125 64.47265625 C-14.03123194 67.88100237 -14.00693939 68.83220185 -15 72 C-21.71877309 59.1923388 -20.35480273 42.5575637 -16.921875 28.890625 C-15.33106727 23.90249907 -13.05077802 19.712379 -10.3125 15.25 C-9.07301587 13.12517006 -8.44512577 11.40367915 -8 9 C-7.34 9 -6.68 9 -6 9 C-5.7525 8.443125 -5.505 7.88625 -5.25 7.3125 C-3.78393985 4.60028873 -1.97010529 2.36412635 0 0 Z " fill="#989EC5" transform="translate(154,78)"/>
<path d="M0 0 C0.33 0.99 0.66 1.98 1 3 C1.66 3 2.32 3 3 3 C3 4.32 3 5.64 3 7 C3.66 7 4.32 7 5 7 C7.24828052 11.49656104 7.16682272 15.07872966 7 20 C7.66 20 8.32 20 9 20 C9.17291697 30.7016389 8.63149942 41.32089373 8 52 C7.67 52 7.34 52 7 52 C6.67 42.43 6.34 32.86 6 23 C5.34 23 4.68 23 4 23 C2.73694665 17.92523206 1.72963916 13.27203646 2 8 C1.34 8 0.68 8 0 8 C-0.38063221 5.6739143 -0.71269945 3.33944736 -1 1 C-0.67 0.67 -0.34 0.34 0 0 Z " fill="#B5B7C5" transform="translate(222,28)"/>
<path d="M0 0 C0.33 0 0.66 0 1 0 C1.05534912 1.08531006 1.11069824 2.17062012 1.16772461 3.28881836 C1.37360064 7.30144385 1.58563209 11.31372415 1.79956055 15.32592773 C1.89142094 17.06509705 1.98159396 18.80435632 2.07006836 20.54370117 C2.19725989 23.03850265 2.3304438 25.53292155 2.46484375 28.02734375 C2.50343002 28.80963852 2.5420163 29.59193329 2.58177185 30.39793396 C2.46631258 34.00127786 2.46631258 34.00127786 4 37 C4.08685603 38.56172745 4.10702219 40.12729344 4.09765625 41.69140625 C4.09443359 42.63564453 4.09121094 43.57988281 4.08789062 44.55273438 C4.07951172 45.54595703 4.07113281 46.53917969 4.0625 47.5625 C4.05798828 48.55958984 4.05347656 49.55667969 4.04882812 50.58398438 C4.03700007 53.05604849 4.02051849 55.52799518 4 58 C1.59811195 55.59811195 1.68282219 54.79880055 1.4375 51.5 C1.36273438 50.613125 1.28796875 49.72625 1.2109375 48.8125 C1.0703125 46.9375 0.9296875 45.0625 0.7890625 43.1875 C0.71429688 42.300625 0.63953125 41.41375 0.5625 40.5 C0.50191406 39.6853125 0.44132813 38.870625 0.37890625 38.03125 C0.15707043 35.78010349 0.15707043 35.78010349 -2 34 C-2.39460023 31.67624308 -2.72230092 29.3406065 -3 27 C-3.31966139 25.33065717 -3.64731066 23.6626783 -4 22 C-3.34 22.33 -2.68 22.66 -2 23 C-1.67 23.99 -1.34 24.98 -1 26 C-0.67 17.42 -0.34 8.84 0 0 Z " fill="#8E99B0" transform="translate(226,51)"/>
<path d="M0 0 C0.33 0 0.66 0 1 0 C1.33 26.4 1.66 52.8 2 80 C2.99 80 3.98 80 5 80 C3 84 1 88 -1 92 C-1.33 92 -1.66 92 -2 92 C-2 89.03 -2 86.06 -2 83 C-1.34 83 -0.68 83 0 83 C0 55.61 0 28.22 0 0 Z " fill="#919BB1" transform="translate(11,59)"/>
<path d="M0 0 C2.475 0.99 2.475 0.99 5 2 C5 3.32 5 4.64 5 6 C5.66 6 6.32 6 7 6 C7.495 12.435 7.495 12.435 8 19 C2.05925694 19.04976779 -3.88136235 19.08589256 -9.82226562 19.10986328 C-11.83953976 19.11986576 -13.8567996 19.13347206 -15.87402344 19.15087891 C-18.78844754 19.17538198 -21.70267848 19.18654091 -24.6171875 19.1953125 C-25.50614716 19.20563507 -26.39510681 19.21595764 -27.31100464 19.22659302 C-33.23857798 19.22763405 -39.37039071 19.01883976 -45 17 C-45.66 16.01 -46.32 15.02 -47 14 C-46.01 14 -45.02 14 -44 14 C-44 14.66 -44 15.32 -44 16 C-42.94039062 15.98839844 -41.88078125 15.97679687 -40.7890625 15.96484375 C-39.40104342 15.95546524 -38.01302245 15.94636511 -36.625 15.9375 C-35.92632812 15.92912109 -35.22765625 15.92074219 -34.5078125 15.91210938 C-29.2265625 15.88671875 -29.2265625 15.88671875 -27 17 C-24.52167341 17.15626576 -22.06688669 17.25813198 -19.5859375 17.31640625 C-18.85629791 17.33718735 -18.12665833 17.35796844 -17.37490845 17.37937927 C-15.04170237 17.44481917 -12.70838279 17.50373368 -10.375 17.5625 C-8.79425905 17.60569053 -7.21352961 17.64930499 -5.6328125 17.69335938 C-1.75532496 17.80049481 2.12227685 17.90177782 6 18 C5.85769192 16.58297487 5.71099254 15.1663904 5.5625 13.75 C5.48128906 12.96109375 5.40007812 12.1721875 5.31640625 11.359375 C5.02365007 9.17635361 4.57935581 7.1226818 4 5 C3.34 5 2.68 5 2 5 C1.34 3.35 0.68 1.7 0 0 Z " fill="#B1B9C9" transform="translate(89,203)"/>
<path d="M0 0 C0.33 0 0.66 0 1 0 C1.02570756 6.52464947 1.04301396 13.04928553 1.05493164 19.57397461 C1.05990874 21.78589364 1.06669282 23.99780946 1.07543945 26.2097168 C1.21514845 62.49296384 1.21514845 62.49296384 -2 71 C-2.66 71 -3.32 71 -4 71 C-3.125 63.125 -3.125 63.125 -2 62 C-1.85125859 58.96402678 -1.76453438 55.9482451 -1.71875 52.91015625 C-1.69113586 51.51137489 -1.69113586 51.51137489 -1.66296387 50.08433533 C-1.60403297 47.07712336 -1.55148168 44.06984807 -1.5 41.0625 C-1.25806951 27.35272862 -0.88049532 13.68507713 0 0 Z " fill="#8592AB" transform="translate(226,122)"/>
<path d="M0 0 C4.29 0 8.58 0 13 0 C12.34 0.99 11.68 1.98 11 3 C8.43359375 3.4765625 8.43359375 3.4765625 5.4375 3.625 C1.9063166 3.5198555 1.9063166 3.5198555 -1 5 C-3.33297433 5.04092937 -5.66705225 5.04241723 -8 5 C-8.33 5.99 -8.66 6.98 -9 8 C-12.125 9.0625 -12.125 9.0625 -16 10 C-17.31430719 10.36861614 -18.62693085 10.74330674 -19.9375 11.125 C-20.948125 11.41375 -21.95875 11.7025 -23 12 C-22.34 10.68 -21.68 9.36 -21 8 C-19.35 8 -17.7 8 -16 8 C-16 7.34 -16 6.68 -16 6 C-15.01 6 -14.02 6 -13 6 C-13 5.34 -13 4.68 -13 4 C-10.36 4 -7.72 4 -5 4 C-5 3.34 -5 2.68 -5 2 C-3.35 2 -1.7 2 0 2 C0 1.34 0 0.68 0 0 Z " fill="#ACB7C7" transform="translate(51,5)"/>
<path d="M0 0 C0.33 0 0.66 0 1 0 C1.09796875 1.18335938 1.1959375 2.36671875 1.296875 3.5859375 C2.52515531 17.07988208 5.74790253 26.49333869 13 38 C14.0034216 39.66460892 15.00434819 41.33073212 16 43 C15.34 43 14.68 43 14 43 C14 42.34 14 41.68 14 41 C13.34 41 12.68 41 12 41 C12 40.34 12 39.68 12 39 C11.34 39 10.68 39 10 39 C7.25221116 35.41954788 5.53031138 32.5076467 5 28 C4.01 27.67 3.02 27.34 2 27 C2 25.35 2 23.7 2 22 C1.01 22 0.02 22 -1 22 C-0.67 14.74 -0.34 7.48 0 0 Z " fill="#909AB1" transform="translate(12,166)"/>
<path d="M0 0 C0.5625 1.9375 0.5625 1.9375 1 4 C0.67 4.33 0.34 4.66 0 5 C-1.118869 10.81256588 -1.09948646 16.48400907 -1.02734375 22.38671875 C-1.0147071 24.39648271 -1.00234545 26.40624842 -0.99023438 28.41601562 C-0.9653505 31.56296304 -0.93726445 34.70981849 -0.90405273 37.85668945 C-0.87389448 40.90837193 -0.85609882 43.95993508 -0.83984375 47.01171875 C-0.82638412 47.9534343 -0.8129245 48.89514984 -0.79905701 49.86540222 C-0.79567825 50.74344009 -0.7922995 51.62147797 -0.78881836 52.52612305 C-0.78136093 53.29554733 -0.7739035 54.06497162 -0.76622009 54.85771179 C-1.03049579 57.27945414 -1.79544539 58.89998735 -3 61 C-3.66 61 -4.32 61 -5 61 C-5.12375 61.639375 -5.2475 62.27875 -5.375 62.9375 C-5.58125 63.618125 -5.7875 64.29875 -6 65 C-6.99 65.495 -6.99 65.495 -8 66 C-7.05526447 62.94777752 -6.20023518 60.30562211 -4.44140625 57.62109375 C-2.2256788 52.05475406 -2.64682397 46.61689755 -2.75 40.6875 C-2.75773437 38.88055664 -2.75773437 38.88055664 -2.765625 37.03710938 C-2.29868032 31.6528403 -2.29868032 31.6528403 -4 27 C-4.09975032 24.48863896 -4.13882183 22.01096585 -4.125 19.5 C-4.12886719 18.79746094 -4.13273437 18.09492187 -4.13671875 17.37109375 C-4.12661378 12.12661378 -4.12661378 12.12661378 -3 11 C-2.855625 9.906875 -2.71125 8.81375 -2.5625 7.6875 C-2.08526936 4.55898801 -1.59539315 2.65898859 0 0 Z " fill="#A2ABBF" transform="translate(34,62)"/>
<path d="M0 0 C0.66 0.33 1.32 0.66 2 1 C-5.8466899 7.19475518 -15.28282754 7.67991877 -25 7 C-29.59896247 6.43743578 -32.94869755 5.87181179 -36.5625 2.875 C-37.036875 2.25625 -37.51125 1.6375 -38 1 C-36.2984375 1.495 -36.2984375 1.495 -34.5625 2 C-23.93384353 4.35072971 -11.45477368 3.93504917 -1 1 C-0.67 0.67 -0.34 0.34 0 0 Z " fill="#646DA8" transform="translate(190,164)"/>
<path d="M0 0 C2.29633824 3.44450737 2.54016485 5.93812283 3 10 C6.83225427 10.08912219 10.26562152 9.87867729 14 9 C14 8.01 14 7.02 14 6 C15.32 6 16.64 6 18 6 C18 5.34 18 4.68 18 4 C22.38461538 1 22.38461538 1 25 1 C25 1.66 25 2.32 25 3 C24.34 3 23.68 3 23 3 C23 3.66 23 4.32 23 5 C21.3203125 6.21875 21.3203125 6.21875 19.125 7.5 C16.74637514 8.89818809 14.96207916 10.03792084 13 12 C11.33927151 12.68132451 9.672233 13.34742127 8 14 C7.01 14.66 6.02 15.32 5 16 C4.67 15.01 4.34 14.02 4 13 C3.01 13 2.02 13 1 13 C-0.10228696 8.59085217 -0.07654536 4.51617599 0 0 Z " fill="#CBD0D9" transform="translate(189,206)"/>
<path d="M0 0 C0.99 0 1.98 0 3 0 C3 12.54 3 25.08 3 38 C2.67 38 2.34 38 2 38 C2 26.78 2 15.56 2 4 C1.34 4 0.68 4 0 4 C0 6.97 0 9.94 0 13 C-0.66 13 -1.32 13 -2 13 C-2.12375 14.258125 -2.2475 15.51625 -2.375 16.8125 C-2.69868059 20.10325263 -3.06604999 21.09907498 -5 24 C-5.04254356 22.00045254 -5.04080783 19.99958364 -5 18 C-4.67 17.67 -4.34 17.34 -4 17 C-3.855625 15.96875 -3.71125 14.9375 -3.5625 13.875 C-2.86397407 9.06293249 -1.53451318 4.60353954 0 0 Z " fill="#2E3C8E" transform="translate(102,108)"/>
<path d="M0 0 C0.33 0 0.66 0 1 0 C1.24234375 1.11375 1.4846875 2.2275 1.734375 3.375 C5.2593178 20.54461362 5.2593178 20.54461362 10.1796875 37.328125 C11 40 11 40 10 42 C9 41 9 41 8.9375 38.4375 C8.958125 37.633125 8.97875 36.82875 9 36 C8.01 35.67 7.02 35.34 6 35 C5.12109375 32.015625 5.12109375 32.015625 4.4375 28.25 C3.56273903 23.29818475 3.56273903 23.29818475 1.94921875 18.56640625 C0.6180318 14.96727115 0.53841337 11.49707427 0.375 7.6875 C0.33632813 6.94693359 0.29765625 6.20636719 0.2578125 5.44335938 C0.16418295 3.62928691 0.08103149 1.81467884 0 0 Z " fill="#4B5598" transform="translate(61,93)"/>
<path d="M0 0 C0.33 0 0.66 0 1 0 C1.05118539 6.59786625 1.08593487 13.1956803 1.10986328 19.79370117 C1.11985071 22.03297845 1.1334453 24.27224292 1.15087891 26.51147461 C1.3319431 50.38532101 1.3319431 50.38532101 -1 61 C-1.33 61 -1.66 61 -2 61 C-2.02685095 58.52076199 -2.04676547 56.0418116 -2.0625 53.5625 C-2.07506836 52.50192383 -2.07506836 52.50192383 -2.08789062 51.41992188 C-2.09653588 49.61306441 -2.05220011 47.80612397 -2 46 C-1.505 45.505 -1.505 45.505 -1 45 C-0.87790076 43.58882298 -0.82229128 42.17179541 -0.79467773 40.75561523 C-0.7647599 39.40432777 -0.7647599 39.40432777 -0.73423767 38.02574158 C-0.71752518 37.04658279 -0.70081268 36.06742401 -0.68359375 35.05859375 C-0.66281265 34.06118668 -0.64203156 33.0637796 -0.62062073 32.03614807 C-0.55501363 28.83667157 -0.49618866 25.63711018 -0.4375 22.4375 C-0.39432538 20.27407961 -0.35071145 18.11066794 -0.30664062 15.94726562 C-0.19932097 10.63160126 -0.09757573 5.31585166 0 0 Z " fill="#A0A9BC" transform="translate(228,126)"/>
<path d="M0 0 C3.96 0.33 7.92 0.66 12 1 C12 1.66 12 2.32 12 3 C13.7325 2.9071875 13.7325 2.9071875 15.5 2.8125 C19.50621665 2.7983187 22.50159032 3.73254368 26.16796875 5.265625 C28.40285293 6.16148476 30.62552561 6.62898838 33 7 C33.495 8.485 33.495 8.485 34 10 C37.00847418 11.22520264 37.00847418 11.22520264 40 12 C38.3125 12.6875 38.3125 12.6875 36 13 C33.25 11.6875 33.25 11.6875 31 10 C31 9.34 31 8.68 31 8 C29.7625 8.061875 29.7625 8.061875 28.5 8.125 C24.38008185 7.97786007 20.96852693 7.09476605 17 6 C17 5.34 17 4.68 17 4 C14.69 4 12.38 4 10 4 C10 3.34 10 2.68 10 2 C8.081875 2.061875 8.081875 2.061875 6.125 2.125 C3.9453125 2.1953125 3.9453125 2.1953125 2 2 C1.34 1.34 0.68 0.68 0 0 Z " fill="#BEC3D1" transform="translate(143,11)"/>
<path d="M0 0 C3 2 3 2 3.4765625 4.12890625 C3.55003906 5.33353516 3.55003906 5.33353516 3.625 6.5625 C3.60362942 9.58076447 3.60362942 9.58076447 5 12 C7.12734525 19.74850569 7.2131497 27.64788068 7.25 35.625 C7.259104 36.60944092 7.26820801 37.59388184 7.27758789 38.6081543 C7.27364014 39.534104 7.26969238 40.46005371 7.265625 41.4140625 C7.26336914 42.2488916 7.26111328 43.0837207 7.25878906 43.94384766 C7 46 7 46 5 48 C5.00785522 46.9627478 5.00785522 46.9627478 5.01586914 45.90454102 C5.036575 42.79053648 5.04963963 39.67654639 5.0625 36.5625 C5.07087891 35.47388672 5.07925781 34.38527344 5.08789062 33.26367188 C5.09111328 32.22919922 5.09433594 31.19472656 5.09765625 30.12890625 C5.10289307 29.17056885 5.10812988 28.21223145 5.11352539 27.22485352 C5.2505313 25.02714661 5.2505313 25.02714661 4 24 C3.67902249 21.68182911 3.48779044 19.36220643 3.28125 17.03125 C3.20934163 15.00819407 3.20934163 15.00819407 2 14 C1.79011244 12.58908915 1.63168764 11.17034524 1.5 9.75 C1.16813426 6.44714576 0.7322392 3.24277362 0 0 Z " fill="#C3CAD4" transform="translate(219,66)"/>
<path d="M0 0 C0.66 0 1.32 0 2 0 C2.19392201 5.52677733 1.7479503 9.75614911 0 15 C-0.66 15 -1.32 15 -2 15 C-2.33 16.65 -2.66 18.3 -3 20 C-4.32 20 -5.64 20 -7 20 C-7 19.34 -7 18.68 -7 18 C-6.34 18 -5.68 18 -5 18 C-4.67 16.02 -4.34 14.04 -4 12 C-3.34 12 -2.68 12 -2 12 C-2.061875 10.4221875 -2.061875 10.4221875 -2.125 8.8125 C-2.00852125 5.25989827 -1.52791932 3.15133359 0 0 Z " fill="#CBCFD8" transform="translate(229,175)"/>
<path d="M0 0 C0.66 0 1.32 0 2 0 C1.94670532 1.10287354 1.94670532 1.10287354 1.89233398 2.22802734 C1.73319584 5.61004495 1.58528053 8.99246783 1.4375 12.375 C1.38142578 13.53128906 1.32535156 14.68757813 1.26757812 15.87890625 C0.90680607 24.39312676 0.55305444 33.01258154 3.5625 41.125 C3.83191406 41.87007812 4.10132813 42.61515625 4.37890625 43.3828125 C4.58386719 43.91648438 4.78882813 44.45015625 5 45 C1.85110025 42.9007335 1.25370286 42.40290778 0 39 C-0.84936784 33.40023918 -1.15950734 27.97047207 -1.125 22.3125 C-1.12306641 21.53664551 -1.12113281 20.76079102 -1.11914062 19.96142578 C-1.0695716 13.27373851 -0.65863963 6.65696482 0 0 Z " fill="#828AB8" transform="translate(150,108)"/>
<path d="M0 0 C0.33 0 0.66 0 1 0 C1.01981934 0.89195068 1.03963867 1.78390137 1.06005859 2.70288086 C1.13874454 6.05225032 1.2254533 9.4012218 1.31738281 12.75024414 C1.35536771 14.1922218 1.39027024 15.63428442 1.421875 17.07641602 C1.59593946 24.92291568 1.90567439 32.38040072 4 40 C2.0625 39.1875 2.0625 39.1875 0 38 C-3.71504914 26.85485258 -0.55330885 11.57828205 0 0 Z " fill="#5E6AA5" transform="translate(116,123)"/>
<path d="M0 0 C0.66 0 1.32 0 2 0 C3.42944945 2.35438733 4.08661261 3.48032433 3.625 6.25 C3.41875 6.8275 3.2125 7.405 3 8 C3 7.01 3 6.02 3 5 C2.34 5 1.68 5 1 5 C1.33 18.53 1.66 32.06 2 46 C0 44 0 44 -0.24050903 42.08908081 C-0.23606781 41.31186676 -0.23162659 40.53465271 -0.22705078 39.73388672 C-0.22689972 38.85312469 -0.22674866 37.97236267 -0.22659302 37.06491089 C-0.21627045 36.11278717 -0.20594788 35.16066345 -0.1953125 34.1796875 C-0.1924826 33.20589142 -0.18965271 32.23209534 -0.18673706 31.22879028 C-0.17551913 28.11073651 -0.1504117 24.99296732 -0.125 21.875 C-0.11497228 19.76432706 -0.10584607 17.65364962 -0.09765625 15.54296875 C-0.07557458 10.36188165 -0.04208129 5.18096115 0 0 Z " fill="#9398C0" transform="translate(51,107)"/>
<path d="M0 0 C2.7427508 -0.47114738 5.19558897 -0.17805784 8 0 C9.76344942 1.76344942 9.25558048 4.16888443 9.3125 6.5625 C9.29125468 12.48994499 8.08208921 15.99160503 5 21 C4.34 21 3.68 21 3 21 C2.67 21.99 2.34 22.98 2 24 C0.35 24.33 -1.3 24.66 -3 25 C-2 23 -2 23 1 22 C1.33 21.01 1.66 20.02 2 19 C2.66 19 3.32 19 4 19 C4.12375 18.4225 4.2475 17.845 4.375 17.25 C5 15 5 15 6.03125 13.15625 C7.14934402 10.66758912 7.20475007 8.9615024 7.125 6.25 C7.09792969 5.05117187 7.09792969 5.05117187 7.0703125 3.828125 C7.04710937 3.22484375 7.02390625 2.6215625 7 2 C4.03 1.505 4.03 1.505 1 1 C0.731875 1.61875 0.46375 2.2375 0.1875 2.875 C-1 5 -1 5 -4 7 C-2.79618552 4.50638429 -1.54571278 2.31856917 0 0 Z " fill="#8C93BD" transform="translate(195,139)"/>
<path d="M0 0 C2.75816665 1.11708629 4.76107282 2.27279157 6.87109375 4.3828125 C6.99609375 7.0078125 6.99609375 7.0078125 6.87109375 9.3828125 C6.64421875 8.7846875 6.41734375 8.1865625 6.18359375 7.5703125 C4.45697852 4.69262045 2.88990757 3.84245874 -0.12890625 2.3828125 C-3.48182633 2.02212748 -3.48182633 2.02212748 -6.94140625 2.1953125 C-8.10285156 2.22238281 -9.26429687 2.24945313 -10.4609375 2.27734375 C-11.34136719 2.31214844 -12.22179687 2.34695312 -13.12890625 2.3828125 C-13.41507812 3.00671875 -13.70125 3.630625 -13.99609375 4.2734375 C-15.32474648 6.74748052 -16.81567323 7.84065715 -19.12890625 9.3828125 C-18.9205482 5.73654663 -18.12061116 4.37324124 -15.69140625 1.5703125 C-11.05660491 -1.96149525 -5.39817813 -1.56497641 0 0 Z " fill="#7882B0" transform="translate(118.12890625,71.6171875)"/>
<path d="M0 0 C0.99 0 1.98 0 3 0 C3 0.99 3 1.98 3 3 C2.34 3 1.68 3 1 3 C1.33 18.18 1.66 33.36 2 49 C1.34 49 0.68 49 0 49 C0 32.83 0 16.66 0 0 Z " fill="#374390" transform="translate(50,104)"/>
<path d="M0 0 C2.0625 0.4375 2.0625 0.4375 4 1 C3.01 1 2.02 1 1 1 C1 1.66 1 2.32 1 3 C0.13117188 3.17015625 -0.73765625 3.3403125 -1.6328125 3.515625 C-8.04120977 4.86325217 -12.7924863 6.0626116 -18 10 C-21.72695857 11.5653226 -24.14436946 12.48293482 -28 11 C-23.59913433 7.87680501 -19.20540698 6.96396425 -14 6 C-14 5.34 -14 4.68 -14 4 C-13.07316406 3.79503906 -12.14632812 3.59007812 -11.19140625 3.37890625 C-9.99386719 3.10949219 -8.79632813 2.84007812 -7.5625 2.5625 C-5.77005859 2.16224609 -5.77005859 2.16224609 -3.94140625 1.75390625 C-1.1295314 1.29933252 -1.1295314 1.29933252 0 0 Z " fill="#B5BBCB" transform="translate(95,12)"/>
<path d="M0 0 C2.37875755 2.37875755 2.28403059 3.12466032 2.5 6.375 C2.66798303 8.88634637 2.80521601 10.633438 3.9921875 12.8671875 C5.38575308 15.81636116 5.43046051 18.50767512 5.625 21.75 C5.69976562 22.92046875 5.77453125 24.0909375 5.8515625 25.296875 C5.90054688 26.18890625 5.94953125 27.0809375 6 28 C3.02898059 25.02898059 2.73553014 21.35893584 1.875 17.375 C1.69324219 16.59253906 1.51148438 15.81007813 1.32421875 15.00390625 C0.19637425 9.89044585 -0.17965924 5.23407257 0 0 Z " fill="#A0A7C9" transform="translate(61,85)"/>
<path d="M0 0 C0.969375 0.185625 1.93875 0.37125 2.9375 0.5625 C2.9375 0.8925 2.9375 1.2225 2.9375 1.5625 C1.2875 1.5625 -0.3625 1.5625 -2.0625 1.5625 C-2.289375 2.14 -2.51625 2.7175 -2.75 3.3125 C-4.39738275 6.13658471 -6.49704838 7.5601963 -9.0625 9.5625 C-9.59875 10.305 -10.135 11.0475 -10.6875 11.8125 C-11.14125 12.39 -11.595 12.9675 -12.0625 13.5625 C-13.0525 13.5625 -14.0425 13.5625 -15.0625 13.5625 C-12.55775661 7.7843618 -6.8499936 -0.06989789 0 0 Z " fill="#DBDEEB" transform="translate(173.0625,82.4375)"/>
<path d="M0 0 C1.16180608 3.92759816 0.75984959 6.97279717 0 11 C-0.33 11.33 -0.66 11.66 -1 12 C-2.6976529 18.56514208 -3.45470838 25.25560367 -4 32 C-4.66 32 -5.32 32 -6 32 C-5.85923685 30.0412957 -5.7122324 28.08303907 -5.5625 26.125 C-5.48128906 25.03445312 -5.40007812 23.94390625 -5.31640625 22.8203125 C-5 20 -5 20 -4 18 C-3.84552858 16.46100692 -3.72534926 14.91846725 -3.625 13.375 C-3.18790725 8.44516706 -1.93398616 4.54066316 0 0 Z " fill="#5B64A2" transform="translate(98,81)"/>
<path d="M0 0 C0.33 1.32 0.66 2.64 1 4 C0.34 4 -0.32 4 -1 4 C-1.20689453 4.86044922 -1.20689453 4.86044922 -1.41796875 5.73828125 C-1.97960926 7.92076349 -2.59506347 10.05122252 -3.3125 12.1875 C-3.53550781 12.88230469 -3.75851563 13.57710937 -3.98828125 14.29296875 C-5 16 -5 16 -7.10546875 16.73828125 C-7.73066406 16.82464844 -8.35585937 16.91101563 -9 17 C-8.67 15.02 -8.34 13.04 -8 11 C-7.34 11 -6.68 11 -6 11 C-5.7834375 10.071875 -5.7834375 10.071875 -5.5625 9.125 C-5 7 -5 7 -4 5 C-3.34 5 -2.68 5 -2 5 C-2 4.01 -2 3.02 -2 2 C-1.34 2 -0.68 2 0 2 C0 1.34 0 0.68 0 0 Z " fill="#B3BAC1" transform="translate(23,19)"/>
<path d="M0 0 C0 0.66 0 1.32 0 2 C-6.69632843 4.55098226 -13.9104121 4.8551643 -21 4 C-21.66 3.01 -22.32 2.02 -23 1 C-21.96359375 1.01160156 -20.9271875 1.02320313 -19.859375 1.03515625 C-18.48958514 1.04453837 -17.11979332 1.05363812 -15.75 1.0625 C-14.72712891 1.07506836 -14.72712891 1.07506836 -13.68359375 1.08789062 C-8.97190336 1.11076291 -4.66214308 0 0 0 Z " fill="#D8DAE8" transform="translate(184,169)"/>
<path d="M0 0 C0.671875 1.7890625 0.671875 1.7890625 1 4 C-0.109375 5.7109375 -0.109375 5.7109375 -1.75 7.375 C-3.87148024 9.65742012 -5.1441646 11.2883292 -6.5625 14.125 C-8.49844193 17.99688385 -11.08729453 21.04364727 -15 23 C-13.87548273 20.0280615 -12.77706209 17.66559313 -11 15 C-10.34 15 -9.68 15 -9 15 C-8.74476563 14.28457031 -8.48953125 13.56914062 -8.2265625 12.83203125 C-6.9123112 9.79753382 -5.30503984 7.36811089 -3.375 4.6875 C-2.74335938 3.80449219 -2.11171875 2.92148438 -1.4609375 2.01171875 C-0.97882813 1.34785156 -0.49671875 0.68398437 0 0 Z " fill="#B6BDCB" transform="translate(208,151)"/>
<path d="M0 0 C1.22589844 0.01353516 1.22589844 0.01353516 2.4765625 0.02734375 C3.41628906 0.04474609 3.41628906 0.04474609 4.375 0.0625 C4.375 1.0525 4.375 2.0425 4.375 3.0625 C3.45976563 3.18367188 2.54453125 3.30484375 1.6015625 3.4296875 C-0.18121094 3.68105469 -0.18121094 3.68105469 -2 3.9375 C-3.77503906 4.18113281 -3.77503906 4.18113281 -5.5859375 4.4296875 C-8.72066659 4.7927585 -8.72066659 4.7927585 -10.625 7.0625 C-11.32248583 8.37997324 -11.99459957 9.71164193 -12.625 11.0625 C-13 8.875 -13 8.875 -12.625 6.0625 C-8.39099347 2.01258071 -5.79846995 -0.08283528 0 0 Z " fill="#9CA2C6" transform="translate(50.625,70.9375)"/>
<path d="M0 0 C4.29 0 8.58 0 13 0 C13 0.66 13 1.32 13 2 C14.98 2 16.96 2 19 2 C19 2.66 19 3.32 19 4 C13.06 3.67 7.12 3.34 1 3 C0.67 2.01 0.34 1.02 0 0 Z " fill="#C1C7D0" transform="translate(175,5)"/>
<path d="M0 0 C1.33332095 2.6666419 0.67102033 4.16680303 0 7 C-0.66 7 -1.32 7 -2 7 C-2.226875 7.556875 -2.45375 8.11375 -2.6875 8.6875 C-4.43712275 11.77016865 -6.22082429 13.78929205 -9 16 C-12.3125 15.8125 -12.3125 15.8125 -15 15 C-15 14.67 -15 14.34 -15 14 C-13.9275 13.979375 -12.855 13.95875 -11.75 13.9375 C-7.72855537 13.36368117 -7.72855537 13.36368117 -5.6875 9.75 C-4.63444049 7.5721833 -3.75741963 5.38007239 -2.875 3.125 C-2 1 -2 1 0 0 Z " fill="#6D77AE" transform="translate(92,148)"/>
<path d="M0 0 C0.66 0 1.32 0 2 0 C2.73845 2.44673099 3.47378929 4.8942829 4.203125 7.34375 C4.82656952 9.42189841 5.47165013 11.49355876 6.125 13.5625 C7.17624226 17.69238032 7.63480848 21.7618563 8 26 C7.34 25.67 6.68 25.34 6 25 C5.39734195 22.85465269 4.89047375 20.6818631 4.4375 18.5 C3.89331558 14.4304541 3.89331558 14.4304541 2 11 C1.60545777 9.15400312 1.25823134 7.29774178 0.9375 5.4375 C0.76089844 4.42558594 0.58429687 3.41367188 0.40234375 2.37109375 C0.26957031 1.58863281 0.13679688 0.80617188 0 0 Z " fill="#4A5398" transform="translate(53,107)"/>
<path d="M0 0 C0.33 0.99 0.66 1.98 1 3 C1.66 3 2.32 3 3 3 C3.22786458 5.05078125 3.45572917 7.1015625 3.68359375 9.15234375 C3.81886614 11.01140229 3.81886614 11.01140229 5 12 C5.07226502 13.85287502 5.0838122 15.70833878 5.0625 17.5625 C5.05347656 18.57441406 5.04445312 19.58632813 5.03515625 20.62890625 C5.02355469 21.41136719 5.01195312 22.19382812 5 23 C2.73045369 19.59568053 2.63450051 17.83475798 2.375 13.8125 C2.30023438 12.72582031 2.22546875 11.63914062 2.1484375 10.51953125 C2.07496094 9.27236328 2.07496094 9.27236328 2 8 C1.34 8 0.68 8 0 8 C-0.38063221 5.6739143 -0.71269945 3.33944736 -1 1 C-0.67 0.67 -0.34 0.34 0 0 Z " fill="#A8B1C2" transform="translate(222,28)"/>
<path d="M0 0 C0.66 0 1.32 0 2 0 C2 0.66 2 1.32 2 2 C2.763125 2.144375 3.52625 2.28875 4.3125 2.4375 C7 3 7 3 10 4 C10.33 5.65 10.66 7.3 11 9 C6.25 8.125 6.25 8.125 4 7 C4 6.34 4 5.68 4 5 C3.01 5 2.02 5 1 5 C0.67 3.35 0.34 1.7 0 0 Z " fill="#ECEDF0" transform="translate(32,213)"/>
<path d="M0 0 C0.66 0 1.32 0 2 0 C2.2765289 2.07997826 2.52030075 4.1643308 2.75 6.25 C2.88921875 7.41015625 3.0284375 8.5703125 3.171875 9.765625 C3 13 3 13 1.140625 15.421875 C-1 17 -1 17 -3 17 C-2.690625 16.236875 -2.38125 15.47375 -2.0625 14.6875 C-0.66197419 9.82685159 -0.34020266 5.03141827 0 0 Z " fill="#DDDEEC" transform="translate(204,141)"/>
<path d="M0 0 C0.99 0 1.98 0 3 0 C3.103125 0.763125 3.20625 1.52625 3.3125 2.3125 C3.75339637 4.9870558 3.75339637 4.9870558 5.375 6.375 C7.85358426 8.85358426 8.71445223 11.7555223 10 15 C8.68 14.67 7.36 14.34 6 14 C6 13.34 6 12.68 6 12 C5.34 12 4.68 12 4 12 C2.14223235 8.86501708 1.79859524 6.62528568 2 3 C1.34 3 0.68 3 0 3 C0 2.01 0 1.02 0 0 Z " fill="#CDD1D9" transform="translate(11,188)"/>
<path d="M0 0 C0.66 0.33 1.32 0.66 2 1 C1.2884375 2.175625 1.2884375 2.175625 0.5625 3.375 C-0.33898023 4.88948678 -1.21179485 6.4235897 -2 8 C-2.99 8 -3.98 8 -5 8 C-5 8.99 -5 9.98 -5 11 C-5.66 11 -6.32 11 -7 11 C-7 12.32 -7 13.64 -7 15 C-7.66 15 -8.32 15 -9 15 C-9.12375 15.598125 -9.2475 16.19625 -9.375 16.8125 C-10 19 -10 19 -12 22 C-11.27991594 17.39146203 -9.68704061 13.32762591 -8 9 C-7.34 9 -6.68 9 -6 9 C-5.7525 8.443125 -5.505 7.88625 -5.25 7.3125 C-3.78393985 4.60028873 -1.97010529 2.36412635 0 0 Z " fill="#575F9E" transform="translate(154,78)"/>
<path d="M0 0 C4.29 0 8.58 0 13 0 C11 3 11 3 8.50390625 3.51171875 C7.53324219 3.56972656 6.56257813 3.62773437 5.5625 3.6875 C4.59441406 3.75324219 3.62632813 3.81898437 2.62890625 3.88671875 C0.75396413 3.9675112 -1.12331799 4 -3 4 C-2.67 3.34 -2.34 2.68 -2 2 C-1.34 2 -0.68 2 0 2 C0 1.34 0 0.68 0 0 Z " fill="#BCC0CE" transform="translate(51,5)"/>
<path d="M0 0 C0.33 0 0.66 0 1 0 C1 4.95 1 9.9 1 15 C0.01 15 -0.98 15 -2 15 C-2 10.71 -2 6.42 -2 2 C-1.34 2 -0.68 2 0 2 C0 1.34 0 0.68 0 0 Z " fill="#A6ADBF" transform="translate(11,44)"/>
<path d="M0 0 C0.66 0 1.32 0 2 0 C4.24828052 4.49656104 4.16682272 8.07872966 4 13 C4.66 13 5.32 13 6 13 C5.67 14.65 5.34 16.3 5 18 C4.67 17.34 4.34 16.68 4 16 C3.34 16 2.68 16 2 16 C1.93941406 15.26394531 1.87882813 14.52789062 1.81640625 13.76953125 C1.73261719 12.79371094 1.64882812 11.81789063 1.5625 10.8125 C1.48128906 9.84957031 1.40007812 8.88664062 1.31640625 7.89453125 C1.02333849 5.21350398 0.57296246 2.6337014 0 0 Z " fill="#CFD3D8" transform="translate(225,35)"/>
<path d="M0 0 C0.66 0 1.32 0 2 0 C2 0.66 2 1.32 2 2 C1.34 2 0.68 2 0 2 C0 4.97 0 7.94 0 11 C-0.66 11 -1.32 11 -2 11 C-2.12375 12.258125 -2.2475 13.51625 -2.375 14.8125 C-2.69868059 18.10325263 -3.06604999 19.09907498 -5 22 C-5.04254356 20.00045254 -5.04080783 17.99958364 -5 16 C-4.67 15.67 -4.34 15.34 -4 15 C-3.87625 13.989375 -3.7525 12.97875 -3.625 11.9375 C-2.9326749 7.57585185 -1.64781357 4.08371189 0 0 Z " fill="#525CA0" transform="translate(102,110)"/>
<path d="M0 0 C0.66 0 1.32 0 2 0 C1.67 1.32 1.34 2.64 1 4 C-0.32 4.33 -1.64 4.66 -3 5 C-3 5.66 -3 6.32 -3 7 C-3.66 7 -4.32 7 -5 7 C-5.04125 7.598125 -5.0825 8.19625 -5.125 8.8125 C-6 11 -6 11 -9.0625 12.75 C-10.5165625 13.36875 -10.5165625 13.36875 -12 14 C-10.55922954 10.63820226 -8.75249979 8.40843732 -6 6 C-5.34 6 -4.68 6 -4 6 C-4 5.34 -4 4.68 -4 4 C-3.34 4 -2.68 4 -2 4 C-2 3.34 -2 2.68 -2 2 C-1.34 2 -0.68 2 0 2 C0 1.34 0 0.68 0 0 Z " fill="#C4C7D6" transform="translate(57,30)"/>
<path d="M0 0 C0 0.66 0 1.32 0 2 C-0.66 2 -1.32 2 -2 2 C-2 2.66 -2 3.32 -2 4 C-3.76371818 5.03307771 -5.53625033 6.05112049 -7.3125 7.0625 C-8.79169922 7.91521484 -8.79169922 7.91521484 -10.30078125 8.78515625 C-13 10 -13 10 -16 9 C-14.35 8.67 -12.7 8.34 -11 8 C-11 7.01 -11 6.02 -11 5 C-9.68 5 -8.36 5 -7 5 C-7 4.34 -7 3.68 -7 3 C-2.61538462 0 -2.61538462 0 0 0 Z " fill="#AEB5C5" transform="translate(214,207)"/>
<path d="M0 0 C0.99 0 1.98 0 3 0 C1 4 -1 8 -3 12 C-3.33 12 -3.66 12 -4 12 C-4 9.03 -4 6.06 -4 3 C-3.01 3 -2.02 3 -1 3 C-0.67 2.01 -0.34 1.02 0 0 Z " fill="#8D93AC" transform="translate(13,139)"/>
<path d="M0 0 C0.66 0 1.32 0 2 0 C1.67 2.97 1.34 5.94 1 9 C0.34 9 -0.32 9 -1 9 C-0.95875 9.78375 -0.9175 10.5675 -0.875 11.375 C-1 14 -1 14 -3 16 C-3.99 15.67 -4.98 15.34 -6 15 C-5.525625 14.2575 -5.05125 13.515 -4.5625 12.75 C-3.22130673 10.38949985 -2.487688 8.63351523 -2 6 C-1.34 6 -0.68 6 0 6 C0 4.02 0 2.04 0 0 Z " fill="#B2B7D4" transform="translate(193,111)"/>
<path d="M0 0 C0.33 0 0.66 0 1 0 C2.81774185 7.09784913 4.43230491 13.65081658 4 21 C0.20936564 17.20936564 0.13454217 10.6950478 -0.125 5.49609375 C-0.125 3.66358874 -0.06910195 1.83120166 0 0 Z " fill="#333E8F" transform="translate(61,93)"/>
<path d="M0 0 C3.96 0.33 7.92 0.66 12 1 C12 1.66 12 2.32 12 3 C14.64 3 17.28 3 20 3 C20.33 3.99 20.66 4.98 21 6 C19.68 6 18.36 6 17 6 C17 5.34 17 4.68 17 4 C14.69 4 12.38 4 10 4 C10 3.34 10 2.68 10 2 C8.081875 2.061875 8.081875 2.061875 6.125 2.125 C3.9453125 2.1953125 3.9453125 2.1953125 2 2 C1.34 1.34 0.68 0.68 0 0 Z " fill="#C6CCD7" transform="translate(143,11)"/>
<path d="M0 0 C0.33 0 0.66 0 1 0 C1 4.29 1 8.58 1 13 C0.01 13 -0.98 13 -2 13 C-2 9.7 -2 6.4 -2 3 C-1.34 3 -0.68 3 0 3 C0 2.01 0 1.02 0 0 Z " fill="#D7D9DF" transform="translate(11,172)"/>
<path d="M0 0 C1.61290428 4.0322607 0.37127477 7.02330317 -1 11 C-1.95564988 13.02156704 -2.94274747 15.02966574 -4 17 C-4.33 17 -4.66 17 -5 17 C-5 15.35 -5 13.7 -5 12 C-4.34 12 -3.68 12 -3 12 C-2.95101562 11.30132812 -2.90203125 10.60265625 -2.8515625 9.8828125 C-2.77679688 8.97273437 -2.70203125 8.06265625 -2.625 7.125 C-2.55539063 6.22007812 -2.48578125 5.31515625 -2.4140625 4.3828125 C-2 2 -2 2 0 0 Z " fill="#2F3C8A" transform="translate(96,132)"/>
<path d="M0 0 C1.13732426 3.40401948 0.83989957 5.77456664 0.0625 9.25 C-0.13214844 10.14203125 -0.32679687 11.0340625 -0.52734375 11.953125 C-0.68332031 12.62859375 -0.83929688 13.3040625 -1 14 C-1.66 14 -2.32 14 -3 14 C-3 15.65 -3 17.3 -3 19 C-3.66 19 -4.32 19 -5 19 C-4.47459357 13.115448 -3.22574586 8.47162525 -1 3 C-0.67 2.01 -0.34 1.02 0 0 Z " fill="#A5ABCC" transform="translate(99,126)"/>
<path d="M0 0 C0.88336837 2.4667645 1.1312406 3.63859372 0.22265625 6.140625 C-0.16019531 6.83671875 -0.54304688 7.5328125 -0.9375 8.25 C-1.31777344 8.95640625 -1.69804688 9.6628125 -2.08984375 10.390625 C-2.39019531 10.92171875 -2.69054687 11.4528125 -3 12 C-4.98 12 -6.96 12 -9 12 C-8.67 10.68 -8.34 9.36 -8 8 C-7.67 8.66 -7.34 9.32 -7 10 C-6.01 10.33 -5.02 10.66 -4 11 C-3.896875 10.484375 -3.79375 9.96875 -3.6875 9.4375 C-2.75736134 6.13973565 -1.38604488 3.13366668 0 0 Z " fill="#6A70A8" transform="translate(85,136)"/>
<path d="M0 0 C0.33 0.99 0.66 1.98 1 3 C0.34 3 -0.32 3 -1 3 C-0.938125 4.1446875 -0.938125 4.1446875 -0.875 5.3125 C-1 8 -1 8 -3 11 C-3.66 11 -4.32 11 -5 11 C-5 11.66 -5 12.32 -5 13 C-5.66 12.67 -6.32 12.34 -7 12 C-6.67 10.35 -6.34 8.7 -6 7 C-5.01 6.67 -4.02 6.34 -3 6 C-2.26676204 3.98491642 -2.26676204 3.98491642 -2 2 C-1.34 2 -0.68 2 0 2 C0 1.34 0 0.68 0 0 Z " fill="#A3ACBE" transform="translate(221,194)"/>
<path d="M0 0 C3.79620155 1.26540052 4.48678188 2.78218431 6.6875 6.0625 C7.31011719 6.98160156 7.93273437 7.90070313 8.57421875 8.84765625 C9.04472656 9.55792969 9.51523437 10.26820313 10 11 C9.01 11.495 9.01 11.495 8 12 C8 11.34 8 10.68 8 10 C7.34 10 6.68 10 6 10 C6 9.34 6 8.68 6 8 C5.34 8 4.68 8 4 8 C0 2.58823529 0 2.58823529 0 0 Z " fill="#9DA7BA" transform="translate(18,197)"/>
<path d="M0 0 C13.97387825 -0.68912276 13.97387825 -0.68912276 17.875 2 C18.57625 2.66 19.2775 3.32 20 4 C17.3333581 5.33332095 15.83319697 4.67102033 13 4 C13 3.01 13 2.02 13 1 C8.71 1 4.42 1 0 1 C0 0.67 0 0.34 0 0 Z " fill="#4D599A" transform="translate(166,72)"/>
<path d="M0 0 C4.13621084 3.3810038 7.81316569 6.66590534 11 11 C10.67 11.66 10.34 12.32 10 13 C6.59150051 10.76684516 5.01418013 8.50292196 3 5 C2.443125 4.443125 1.88625 3.88625 1.3125 3.3125 C0.879375 2.879375 0.44625 2.44625 0 2 C0 1.34 0 0.68 0 0 Z " fill="#CDD2DC" transform="translate(200,37)"/>
<path d="M0 0 C0.33 0 0.66 0 1 0 C1.03738281 0.61746094 1.07476562 1.23492187 1.11328125 1.87109375 C1.58723416 7.9767224 2.80600373 13.28733047 5 19 C1.90111147 16.93407431 1.20302054 16.36845752 0 13 C-0.1953125 9.765625 -0.1953125 9.765625 -0.125 6.25 C-0.09792969 4.49429688 -0.09792969 4.49429688 -0.0703125 2.703125 C-0.04710937 1.81109375 -0.02390625 0.9190625 0 0 Z " fill="#8D94BE" transform="translate(150,134)"/>
<path d="M0 0 C2.475 0.99 2.475 0.99 5 2 C5 3.32 5 4.64 5 6 C5.66 6 6.32 6 7 6 C7 7.98 7 9.96 7 12 C5.25372522 9.38058783 4.61277612 7.96175123 4 5 C3.34 5 2.68 5 2 5 C1.34 3.35 0.68 1.7 0 0 Z " fill="#C0C5D4" transform="translate(89,203)"/>
<path d="M0 0 C1 2 1 2 0.125 4.6875 C-0.24625 5.780625 -0.6175 6.87375 -1 8 C-1.165 9.258125 -1.33 10.51625 -1.5 11.8125 C-1.665 12.864375 -1.83 13.91625 -2 15 C-2.99 15.495 -2.99 15.495 -4 16 C-3.65697965 10.01488629 -3.17692157 5.24882694 0 0 Z " fill="#8F99B0" transform="translate(194,173)"/>
<path d="M0 0 C0 0.33 0 0.66 0 1 C-1.65 1 -3.3 1 -5 1 C-5.28875 1.639375 -5.5775 2.27875 -5.875 2.9375 C-7 5 -7 5 -9 6 C-9.66 5.34 -10.32 4.68 -11 4 C-7.65667474 -0.27945633 -5.29105716 -0.4070044 0 0 Z " fill="#CED3E3" transform="translate(176,83)"/>
<path d="M0 0 C0.33 0 0.66 0 1 0 C1.125 7.75 1.125 7.75 0 10 C-0.66 10 -1.32 10 -2 10 C-2.33 10.99 -2.66 11.98 -3 13 C-2.45144652 8.428721 -1.58255197 4.32564205 0 0 Z " fill="#4F589B" transform="translate(89,123)"/>
<path d="M0 0 C1.65 0 3.3 0 5 0 C5 0.66 5 1.32 5 2 C5.66 2 6.32 2 7 2 C7.33 2.99 7.66 3.98 8 5 C6.35 5 4.7 5 3 5 C3 4.34 3 3.68 3 3 C2.34 3 1.68 3 1 3 C0.67 2.01 0.34 1.02 0 0 Z " fill="#BDC3CD" transform="translate(204,13)"/>
<path d="M0 0 C0.66 0 1.32 0 2 0 C2 2.64 2 5.28 2 8 C1.01 8.33 0.02 8.66 -1 9 C-0.67 6.03 -0.34 3.06 0 0 Z " fill="#F7F8F9" transform="translate(229,175)"/>
<path d="M0 0 C3 2 3 2 3.51171875 4.3828125 C3.56972656 5.28773438 3.62773438 6.19265625 3.6875 7.125 C3.75324219 8.03507813 3.81898437 8.94515625 3.88671875 9.8828125 C3.92410156 10.58148438 3.96148437 11.28015625 4 12 C1.49484216 9.49484216 0.94900914 7.38931835 0 4 C0 2.68 0 1.36 0 0 Z " fill="#33408D" transform="translate(61,131)"/>
<path d="M0 0 C0.99 0 1.98 0 3 0 C2.49396008 2.16874252 2.00016187 3.99967627 1 6 C0.01 6 -0.98 6 -2 6 C-2 4.68 -2 3.36 -2 2 C-1.34 2 -0.68 2 0 2 C0 1.34 0 0.68 0 0 Z " fill="#E3E5E9" transform="translate(222,195)"/>
<path d="M0 0 C1.33332095 2.6666419 0.67102033 4.16680303 0 7 C-1.32 7.33 -2.64 7.66 -4 8 C-3.40138258 5.64828869 -2.73075648 3.3140622 -2 1 C-1.34 0.67 -0.68 0.34 0 0 Z " fill="#646DA9" transform="translate(92,148)"/>
<path d="M0 0 C0.33 0 0.66 0 1 0 C1.35338623 2.96844435 1.5417682 5.15598218 -0.11328125 7.734375 C-1.35503168 9.20348819 -2.67337918 10.60704814 -4 12 C-4 8.76344816 -3.3449153 7.21247361 -2 4.3125 C-1.62875 3.50425781 -1.2575 2.69601563 -0.875 1.86328125 C-0.58625 1.24839844 -0.2975 0.63351563 0 0 Z " fill="#919AB0" transform="translate(220,131)"/>
<path d="M0 0 C2.1793144 1.75864246 2.93686419 2.69396 3.51171875 5.48046875 C3.56972656 6.37378906 3.62773438 7.26710938 3.6875 8.1875 C3.75324219 9.08855469 3.81898437 9.98960938 3.88671875 10.91796875 C3.92410156 11.60503906 3.96148437 12.29210937 4 13 C3.34 12.67 2.68 12.34 2 12 C0.73238238 7.70418473 0 4.49055702 0 0 Z " fill="#B4B9D3" transform="translate(67,115)"/>
<path d="M0 0 C0.33 0 0.66 0 1 0 C0 7.42857143 0 7.42857143 -1 11 C-1.66 11 -2.32 11 -3 11 C-2.25 3.375 -2.25 3.375 0 0 Z " fill="#8E98AF" transform="translate(225,182)"/>
<path d="M0 0 C0 3 0 3 -2.375 5.625 C-5 8 -5 8 -7 9 C-5.87548273 6.0280615 -4.77706209 3.66559313 -3 1 C-2.01 0.67 -1.02 0.34 0 0 Z " fill="#A8B1C0" transform="translate(200,165)"/>
<path d="M0 0 C5.4 0.6 5.4 0.6 7.875 2.25 C9.37422891 4.58213386 9.22023906 6.28371825 9 9 C8.7215625 8.13375 8.7215625 8.13375 8.4375 7.25 C6.29448878 3.89572157 3.51177437 2.82092004 0 1 C0 0.67 0 0.34 0 0 Z " fill="#8C93BE" transform="translate(116,72)"/>
<path d="M0 0 C0.33 0 0.66 0 1 0 C0.67 2.97 0.34 5.94 0 9 C-0.66 9 -1.32 9 -2 9 C-2 6.69 -2 4.38 -2 2 C-1.34 2 -0.68 2 0 2 C0 1.34 0 0.68 0 0 Z " fill="#DDDFE3" transform="translate(11,44)"/>
<path d="M0 0 C0.99 0 1.98 0 3 0 C3.66 2.97 4.32 5.94 5 9 C4.01 8.67 3.02 8.34 2 8 C2 6.35 2 4.7 2 3 C1.34 3 0.68 3 0 3 C0 2.01 0 1.02 0 0 Z " fill="#DEE0E6" transform="translate(11,188)"/>
<path d="M0 0 C2 1 2 1 2.6328125 2.84765625 C2.79523437 3.57855469 2.95765625 4.30945313 3.125 5.0625 C3.29257812 5.79597656 3.46015625 6.52945313 3.6328125 7.28515625 C3.75398438 7.85105469 3.87515625 8.41695312 4 9 C2 7.875 2 7.875 0 6 C-0.25 2.8125 -0.25 2.8125 0 0 Z " fill="#848AB9" transform="translate(39,156)"/>
<path d="M0 0 C0.66 0.33 1.32 0.66 2 1 C1.2884375 2.175625 1.2884375 2.175625 0.5625 3.375 C-0.33898023 4.88948678 -1.21179485 6.4235897 -2 8 C-2.99 8 -3.98 8 -5 8 C-3.62845496 5.04590299 -2.01136276 2.55991624 0 0 Z " fill="#666EA7" transform="translate(154,78)"/>
<path d="M0 0 C0.99 0.495 0.99 0.495 2 1 C2 2.65 2 4.3 2 6 C2.66 6 3.32 6 4 6 C4 7.65 4 9.3 4 11 C1.9656541 9.58480285 1.09589607 8.45017877 0.578125 6.01953125 C0.33726048 4.01823046 0.16467259 2.0090056 0 0 Z " fill="#3E4992" transform="translate(139,144)"/>
<path d="M0 0 C2 1 2 1 2 1 Z " fill="#FFFFFF" transform="translate(194,6)"/>
</svg>
